STARTFONT 2.3
FONT -FontForge-Fontdiner Swanky-Book-R-Normal--18-180-72-72-P-114-ISO10646-1
SIZE 18 72 72  4
FONTBOUNDINGBOX 26 28 -5 -9
COMMENT "Generated by fontforge, http://fontforge.sourceforge.net"
COMMENT "Copyright (c) 2010 by Font Diner, Inc. All rights reserved."
STARTPROPERTIES 40
FOUNDRY "FontForge"
FAMILY_NAME "Fontdiner Swanky"
WEIGHT_NAME "Book"
SLANT "R"
SETWIDTH_NAME "Normal"
ADD_STYLE_NAME ""
PIXEL_SIZE 18
POINT_SIZE 180
RESOLUTION_X 72
RESOLUTION_Y 72
SPACING "P"
AVERAGE_WIDTH 114
CHARSET_REGISTRY "ISO10646"
CHARSET_ENCODING "1"
FONTNAME_REGISTRY ""
CHARSET_COLLECTIONS "ISO10646-1"
BITS_PER_PIXEL 4
FONT_NAME "FontdinerSwanky-Regular"
FACE_NAME "Fontdiner Swanky Regular"
COPYRIGHT "Copyright (c) 2010 by Font Diner, Inc. All rights reserved."
FONT_VERSION "1.001"
FONT_ASCENT 14
FONT_DESCENT 4
UNDERLINE_POSITION -2
UNDERLINE_THICKNESS 1
X_HEIGHT 10
CAP_HEIGHT 11
RAW_ASCENT 799
RAW_DESCENT 200
NORM_SPACE 6
RELATIVE_WEIGHT 40
RELATIVE_SETWIDTH 50
SUPERSCRIPT_X 0
SUPERSCRIPT_Y 8
SUPERSCRIPT_SIZE 11
SUBSCRIPT_X 0
SUBSCRIPT_Y 2
SUBSCRIPT_SIZE 11
AVG_LOWERCASE_WIDTH 114
AVG_UPPERCASE_WIDTH 139
ENDPROPERTIES
CHARS 231
STARTCHAR space
ENCODING 32
SWIDTH 320 0
DWIDTH 6 0
BBX 1 1 0 0
BITMAP
00
ENDCHAR
STARTCHAR exclam
ENCODING 33
SWIDTH 305 0
DWIDTH 6 0
BBX 6 17 0 -1
BITMAP
012100
04FFF6
05FFF4
06FFF1
06FFD0
07FFA0
07FF80
08FF50
09FF20
09FE00
0AFC00
0AF900
06A500
177100
BFF800
7FF600
011000
ENDCHAR
STARTCHAR quotedbl
ENCODING 34
SWIDTH 369 0
DWIDTH 7 0
BBX 7 5 0 7
BITMAP
BED5EE60
BFD4FF50
9FC3FF40
8FB1FF20
6C80CD10
ENDCHAR
STARTCHAR numbersign
ENCODING 35
SWIDTH 702 0
DWIDTH 13 0
BBX 13 13 0 0
BITMAP
00023200340000
000EF600EE0000
000FF400FE0000
5EEFFDCCFFBB40
7FFFFFFFFFFF40
357FF448FC3300
003FD006FA0000
004FC018F91100
BFFFFFFFFFFE00
DEFFFFFFFFFC00
007F711DF83200
008F600EF50000
00572007720000
ENDCHAR
STARTCHAR dollar
ENCODING 36
SWIDTH 545 0
DWIDTH 10 0
BBX 10 17 0 -3
BITMAP
0001220000
000BFA0000
000AF80000
018DFC4061
2EFDBEFAE0
AFC0018FF0
CFE50006E0
7FFFE93070
09FFFFFB20
314BFFFFE2
6A0016EFF9
8FA2003FF9
9FFFB9DFE2
A35AFFC820
2003FE0000
0005FF1000
0001330000
ENDCHAR
STARTCHAR percent
ENCODING 37
SWIDTH 657 0
DWIDTH 12 0
BBX 13 15 0 -1
BITMAP
00220003D92000
2DFFB009FE1000
AF79F61EF90000
BF26F86FF20000
6FDEF3CFB00000
05A933FF400000
000009FC000000
00001EF6000000
00006FE1000000
0000DF818A8100
0004FF2CFBFC00
000AFA2FC0BF20
001FF31FD4DF10
007FC006EFE500
00395000020000
ENDCHAR
STARTCHAR ampersand
ENCODING 38
SWIDTH 668 0
DWIDTH 12 0
BBX 15 16 0 -2
BITMAP
0002674000000000
009FDDFB00000000
06FD10CF70000000
08FC008F80000000
04FF70BF40000000
00BFF9F900000000
001DFF9002000000
006EFFC109100000
07FD8FFA09900000
2FF50BFF7CF60000
6FF501DFFF771000
6FFD305FFE68A810
1DFFFFFFFFFD4000
02AEFD71EF910000
00000006E4000000
0000001810000000
ENDCHAR
STARTCHAR quotesingle
ENCODING 39
SWIDTH 177 0
DWIDTH 3 0
BBX 3 5 0 7
BITMAP
CFF0
BFD0
9FC0
8FA0
5B70
ENDCHAR
STARTCHAR parenleft
ENCODING 40
SWIDTH 384 0
DWIDTH 7 0
BBX 7 18 0 -3
BITMAP
00002960
0006FA00
006FE100
02FF7000
08FF2000
0CFC0000
0FFA0000
1FF90000
1FF90000
1FFA0000
0FFB0000
0CFE0000
08FF4000
02FF9000
008FF200
000AF900
00007E40
00000150
ENDCHAR
STARTCHAR parenright
ENCODING 41
SWIDTH 375 0
DWIDTH 7 0
BBX 6 18 0 -3
BITMAP
781000
0BE500
02FF50
008FE1
003FF7
000DFB
000BFD
000AFF
000AFF
000BFF
000CFE
001FFB
005FF7
00AFE2
03FF70
0AF900
5E6000
510000
ENDCHAR
STARTCHAR asterisk
ENCODING 42
SWIDTH 640 0
DWIDTH 12 0
BBX 12 12 0 0
BITMAP
000410120000
03DF606F7000
00CFD0CFF800
002EF6FFC100
6746FFFE2011
AFFFFFFEDFF7
BFFFFFFFFFF5
8857FFFC3462
002EFAFF9000
00BFD1EFF600
01CF609F9100
000810220000
ENDCHAR
STARTCHAR plus
ENCODING 43
SWIDTH 607 0
DWIDTH 11 0
BBX 11 12 0 0
BITMAP
000033200000
0000FFE00000
0000FFD00000
0000EFC00000
7988EFD55420
BFFFFFFFFFA0
CFFFFFFFFF90
3443DFB11100
0000CF900000
0000CF900000
0000CF800000
000034200000
ENDCHAR
STARTCHAR comma
ENCODING 44
SWIDTH 226 0
DWIDTH 4 0
BBX 4 6 0 -4
BITMAP
0330
8FF8
BFFD
3AFA
08D2
0710
ENDCHAR
STARTCHAR hyphen
ENCODING 45
SWIDTH 549 0
DWIDTH 10 0
BBX 8 4 1 4
BITMAP
ABAA9875
DFFFFFFC
EFFFFFFB
44433211
ENDCHAR
STARTCHAR period
ENCODING 46
SWIDTH 226 0
DWIDTH 4 0
BBX 4 4 0 -2
BITMAP
0661
9FFA
AFFC
1772
ENDCHAR
STARTCHAR slash
ENCODING 47
SWIDTH 600 0
DWIDTH 11 0
BBX 13 18 -1 -2
BITMAP
00000000076000
000000002FFB10
00000000BFFD10
00000004FFF500
0000000DFFB000
0000007FFE2000
000001EFF70000
000009FFC00000
00003FFF300000
0000BFF9000000
0005FFE1000000
001DFF50000000
008FFB00000000
02EFF200000000
0AFF8000000000
4FFD0000000000
2AF40000000000
00300000000000
ENDCHAR
STARTCHAR zero
ENCODING 48
SWIDTH 740 0
DWIDTH 13 0
BBX 13 12 0 0
BITMAP
00001455200000
003BFFFFFD5000
04FFFB77DFF700
1EFF70002EFF30
6FFB000007FFA0
9FF7000003FFD0
9FF6000002FFE0
7FF8000004FFC0
3FFD00000AFF70
09FFA0007FFC00
00AFFECEFFC100
0004ADEDA50000
ENDCHAR
STARTCHAR one
ENCODING 49
SWIDTH 503 0
DWIDTH 9 0
BBX 11 14 -1 -1
BITMAP
000369D90000
5BEFFFF90000
0036DFF90000
00009FF80000
00009FF80000
00008FF70000
00007FF70000
00007FF60000
00006FF60000
00005FF50000
00005FF50000
00006FF60000
004BFFFFA300
058888888850
ENDCHAR
STARTCHAR two
ENCODING 50
SWIDTH 638 0
DWIDTH 12 0
BBX 12 15 -1 -1
BITMAP
052000000000
04B039DEB500
02FBFFFFFFC1
00FFE5018FF9
00DF40000DFE
00BA00000EFE
009400004FFA
00600006EFD2
001006DFF916
0002CFF9202A
004EFD3000AA
02EFE10002F9
0BFFDCCDDEF8
1FFFFFFFFFF7
033455677884
ENDCHAR
STARTCHAR three
ENCODING 51
SWIDTH 620 0
DWIDTH 11 0
BBX 12 16 -1 -2
BITMAP
040000000000
0A2038984000
07BAFFFFFC20
04FFC549FFD1
01FB10009FF5
00C200005FF6
00500001BFF3
00003CBEFF80
00004FFFFFD1
00500016FFF8
01D10000AFFB
04F90000AFFA
08FFA328FFF4
0B9CFFFFFE60
0A005ABA7100
210000000000
ENDCHAR
STARTCHAR four
ENCODING 52
SWIDTH 606 0
DWIDTH 11 0
BBX 12 16 -1 -2
BITMAP
000000002400
00000001C500
0000000AF400
0000008FF400
000006FFF400
00004FFFF300
0002EFDFF301
001DF88FF316
00BFA08FF287
09FE77BFF9F6
6FFFFFFFFEF6
1100007FF1B5
0000006FF045
0000008FF102
00028EFFFE81
000333333331
ENDCHAR
STARTCHAR five
ENCODING 53
SWIDTH 610 0
DWIDTH 11 0
BBX 11 15 0 -1
BITMAP
000000001310
013579BEFF20
CFFFFFFFFF10
BFEA87548E00
9FE000002C00
6FF466410600
3FFFFFFF9100
1FD87AFFFB00
0810004FFF30
0000000BFF60
2800000DFF50
4F81006FFF20
6FFEBCFFF900
998FFFFFA000
500278730000
ENDCHAR
STARTCHAR six
ENCODING 54
SWIDTH 619 0
DWIDTH 11 0
BBX 12 17 0 -2
BITMAP
000000000300
000000003800
000168508900
005EFFFCEB00
03FFFDDFFD00
0CFF7003BF00
3FFD12200A10
8FFEFFFFB410
CFFFC77EFF30
EFFB0004FFC0
FFF40000DFF0
EFF20000BFF1
BFF40000CFE0
6FF90003FF90
0BFF957EFD10
008EFFFE9100
000034300000
ENDCHAR
STARTCHAR seven
ENCODING 55
SWIDTH 598 0
DWIDTH 11 0
BBX 12 14 0 -1
BITMAP
BCCBAA987764
9FFFFFFFFFF6
4FE4567DFFE1
0EB0000EFF90
0A70003FFF30
0530007FFC00
010000BFF600
000000EFE100
000003FF9000
000007FF2000
00000BFB0000
00001EF50000
0018EFFD5000
03ABCCCDDB40
ENDCHAR
STARTCHAR eight
ENCODING 56
SWIDTH 642 0
DWIDTH 12 0
BBX 12 15 0 -2
BITMAP
00039BA71000
01AFFEFFE700
0AFF701CFF50
1FFE0004FFB0
2FFC0002FFC0
0EFE1005FF90
07FFC67EFE20
07FFFFFFFD30
5FFFA45DFFE1
DFFB0001EFF8
FFF70000CFFA
CFFA0001EFF7
5FFF701BFFD1
05EFFFFFFB20
001579972000
ENDCHAR
STARTCHAR nine
ENCODING 57
SWIDTH 610 0
DWIDTH 11 0
BBX 11 16 0 -3
BITMAP
0039CDC71000
07FFECEFD200
5FFB101CFD10
BFF40005FF60
EFF10003FFB0
EFF30004FFD0
BFF9000BFFD0
3FFFA8CFFFC0
04DFFFFFFF90
16057859FF50
0D70002EFD00
0CFD88EFF500
0AFFFFFF8000
08A29BA40000
063000000000
010000000000
ENDCHAR
STARTCHAR colon
ENCODING 58
SWIDTH 223 0
DWIDTH 4 0
BBX 4 8 0 -2
BITMAP
8FE4
EFFA
6DD4
0000
1650
CFF8
DFF9
2871
ENDCHAR
STARTCHAR semicolon
ENCODING 59
SWIDTH 228 0
DWIDTH 4 0
BBX 4 10 0 -4
BITMAP
7FE4
DFFB
6DD4
0000
0320
AFF6
EFFA
4CF7
0BC1
1710
ENDCHAR
STARTCHAR less
ENCODING 60
SWIDTH 563 0
DWIDTH 10 0
BBX 11 12 0 0
BITMAP
000000002900
00000007EF30
000004DFFF70
0002AFFFFD50
018FFFFE6000
5DFFFE710000
4DFFE1000000
018FFC200000
0003CFE40000
000007EF7000
0000002BFA00
000000005B00
ENDCHAR
STARTCHAR equal
ENCODING 61
SWIDTH 531 0
DWIDTH 10 0
BBX 10 8 0 1
BITMAP
5543221000
EFFFFFFFF5
EFFFFFFFF5
A999887762
4555667783
EFFFFFFFF6
FFFFFFFFF5
1233456672
ENDCHAR
STARTCHAR greater
ENCODING 62
SWIDTH 576 0
DWIDTH 10 0
BBX 11 12 0 0
BITMAP
370000000000
8FD400000000
CFFFB2000000
8EFFFF810000
019FFFFD5000
00029FFFFB30
000004FFFB20
00004EFE5000
0007FF910000
01AFD4000000
1CF800000000
2C3000000000
ENDCHAR
STARTCHAR question
ENCODING 63
SWIDTH 592 0
DWIDTH 11 0
BBX 11 17 0 -1
BITMAP
040000000000
0E2232000000
3FFFFFFB4000
6F7237DFF700
9400001DFF30
50000006FF70
00000006FF80
0000001CFF50
006967DFFC00
009FFFFE9100
00BFF5200000
00DFB0000000
007B50000000
056200000000
8FFE20000000
7FFF30000000
048500000000
ENDCHAR
STARTCHAR at
ENCODING 64
SWIDTH 792 0
DWIDTH 14 0
BBX 15 14 0 -1
BITMAP
0000000100000000
00028CFFFD820000
007FFB7559EF6000
08FE4168612DF500
4FF33ED9EE24FE10
AFA0AF506F80DF60
DF508E404FA0AFA0
FF4029CBBFA09FB0
EF60DF83AF90AFA0
BF91FF309F70CF60
5FF27FFEFF61FE10
0AFD21217FBBF400
008EF94107BA3000
0001589A83000000
ENDCHAR
STARTCHAR A
ENCODING 65
SWIDTH 788 0
DWIDTH 14 0
BBX 21 16 -3 -4
BITMAP
000029EEDDC20000000000
00000029FFF90000000000
000000005FFF1000000000
00000000AFFF8000000000
00000003FBFFE100000000
0000000BE1BFF800000000
0000004F604FFE10000000
000000CF765EFF80000000
000005FFFFFFFFE1000000
00000CD66544EFF8000000
00005F5000007FFE100000
004AFF6000001FFF700000
3ADFFFFB200009FFE40000
00000134400005FFFFEA30
0000000000003EFFC84100
000000000002B841000000
ENDCHAR
STARTCHAR B
ENCODING 66
SWIDTH 774 0
DWIDTH 14 0
BBX 16 15 -2 -3
BITMAP
4CEDDDDCCBA74000
018FFFFFEFFFFD60
0004FFF00026DFF7
0002FFF000002FFD
0001FFF100004FFC
0000EFF4346AFFE3
0000DFFFFFFFFA20
0000CFFCBEFFE910
0000BFF6003BFFC0
00009FF60000FFF4
00008FF70007FFF4
00007FF847CFFF90
0018FFFFFFFD9300
05DECA9754100000
1200000000000000
ENDCHAR
STARTCHAR C
ENCODING 67
SWIDTH 766 0
DWIDTH 14 0
BBX 14 16 0 -2
BITMAP
00000000000001
00000245410037
0005CFFFFF92D5
00AFFFDA9DFFF2
08FFF600009FF0
2FFF8000000AC0
7FFE1000000190
9FFB0000000020
9FFB0000000000
7FFD0000000010
3FFF2000000160
0CFFB0000007A0
03EFFB20017FD0
003DFFFEDFFCD1
00006BEFEC6034
00000000000001
ENDCHAR
STARTCHAR D
ENCODING 68
SWIDTH 833 0
DWIDTH 15 0
BBX 17 14 -2 -1
BITMAP
110000000000000000
28EFFFFFFFFDA40000
0016DFFFDBBEFFB100
00000FFF80007FFD10
00000EFF700009FF70
00000DFF600004FFD0
00000BFF500002FFF0
00000AFF400002FFE0
000009FF400003FFD0
000009FF300007FF80
000008FF20002EFE20
00000AFF7668EFE400
0006DFFFFFFFE92000
006876543321000000
ENDCHAR
STARTCHAR E
ENCODING 69
SWIDTH 781 0
DWIDTH 14 0
BBX 16 14 -2 -1
BITMAP
0012345689ABCDE5
17CFFFFFFEDCAFF4
00029FFF00000AF3
00004FFF000403F3
00003FFE005600B2
00003FFE00D60041
00002FFE48F60000
00002FFFFFF50040
00001FFE8CF50090
00000FFD01E502C0
00000FFC004407C0
00001FFC22232CC0
004AFFFFFFFFFFD0
0466666655555540
ENDCHAR
STARTCHAR F
ENCODING 70
SWIDTH 731 0
DWIDTH 13 0
BBX 15 14 -2 -1
BITMAP
00012345789ABD80
16DFFFFFFFECDF90
0004AFFD20004F90
00005FFD00110D90
00005FFD00810890
00005FFC02F10280
00004FFD5BF10040
00004FFFFFF00000
00003FFD8DF00000
00003FFB04F00000
00002FFB00A00000
00002FFA00200000
00018FFD50000000
039EFFFFFD710000
ENDCHAR
STARTCHAR G
ENCODING 71
SWIDTH 828 0
DWIDTH 15 0
BBX 17 15 0 -1
BITMAP
000000000000130000
000003566201C40000
0007DFFFFFBDF30000
01BFFFB89DFFF20000
09FFF500008FF00000
2FFF80000008E00000
7FFF20000000B00000
9FFE00111111311100
9FFD0016CFFFFFD610
7FFF000003BFF60000
3FFF5000007FF50000
0CFFD10000AFF60000
02EFFD4017FFF80000
002CFFFFFFE4990000
000048AA9510040000
ENDCHAR
STARTCHAR H
ENCODING 72
SWIDTH 797 0
DWIDTH 14 0
BBX 18 15 -2 -2
BITMAP
000000005999998871
23333322248EFFE710
06DFFFFE8209FF8000
0007FFE10009FF8000
0004FFD00008FF7000
0003FFD00008FF7000
0003FFD00007FF7000
0002FFFCCCCDFF6000
0002FFFFECBCFF6000
0002FFC00006FF5000
0001FFC00006FF5000
0001FFC00008FF8000
0000FFB028EFFFFE83
005BFFEA4000000000
168888888620000000
ENDCHAR
STARTCHAR I
ENCODING 73
SWIDTH 445 0
DWIDTH 8 0
BBX 12 15 -2 -2
BITMAP
166655555541
017DFFFFE930
00008FFD1000
00005FFD0000
00005FFC0000
00004FFC0000
00003FFB0000
00003FFB0000
00002FFB0000
00002FFA0000
00001FFA0000
00000FF90000
00000FF90000
0005BFFE9300
027888888861
ENDCHAR
STARTCHAR J
ENCODING 74
SWIDTH 718 0
DWIDTH 13 0
BBX 17 17 -2 -3
BITMAP
000000000000000220
000000001468ADD600
000148CEFFFFE71000
0000001359FFC00000
0000000003FFD00000
0000000001FFF10000
0000000000DFF30000
0000000000AFF50000
00000000008FF60000
00000000007FF70000
34444442007FF70000
18EFFE81008FF60000
001DF60000BFF30000
0009FA0002FFC00000
0001EFA56DFE300000
00003CFFFFB3000000
000000233100000000
ENDCHAR
STARTCHAR K
ENCODING 75
SWIDTH 934 0
DWIDTH 17 0
BBX 21 16 -1 -2
BITMAP
0000001123200000000000
5BEEFFFFC6222222222100
003BFFF3004AFFFFFB5100
0006FFE00001AFE7200000
0005FFE0006EFA20000000
0005FFD03CFD5000000000
0004FFD9FFE10000000000
0003FFFFAFF90000000000
0002FFD308FF7000000000
0001FFB000CFF400000000
0001FFB0002EFE20000000
0000FFB00006FFD1000000
0005FFD50000AFFB000000
16DFFFFFE9401EFF900000
011111111114AFFFFE8300
0000000000577777777740
ENDCHAR
STARTCHAR L
ENCODING 76
SWIDTH 712 0
DWIDTH 13 0
BBX 15 15 -2 0
BITMAP
1222222222220000
05AFFFFFFE820000
00018FFF71000000
00003FFF30000000
00003FFF20000000
00002FFF20000000
00001FFF20000000
00000FFF20000040
00000FFF10000090
00000EFF100005A0
00000DFF10000BA0
00000CFF10002FA0
00000CFF32218FA0
0004CFFFFFFFFFA0
039CBAA988766530
ENDCHAR
STARTCHAR M
ENCODING 77
SWIDTH 1033 0
DWIDTH 19 0
BBX 22 14 -2 -1
BITMAP
16BBBBBB3000001EFFEEA3
0017EFFFB000008FFFA300
00006FFFF30001EFFF5000
00005FFFFB0009FFFF4000
00003FFFFF303FEFFF3000
00002FCDFFB0BF7FFF3000
00001FD4FFF7FC3FFF2000
00000FD0BFFFF42FFF1000
00000EE02FFFC02FFF0000
00000DE008FF502FFF0000
00000CF001EC002FFE0000
00000BF00065005FFE2000
0027CFFE95103BEEFFFC72
0477777777630000000111
ENDCHAR
STARTCHAR N
ENCODING 78
SWIDTH 840 0
DWIDTH 15 0
BBX 19 15 -2 -1
BITMAP
00000000000000011110
17BBBBAA15BFFFFFFA30
0029FFFFB0039EFA2000
00004FFFF80008F30000
00003FFFFF5008F30000
00003FAEFFE307F30000
00003F84FFFD17F20000
00003F806FFFB7F20000
00003F9008FFFEF20000
00003F9000AFFFF10000
00003FA0001CFFF10000
00004FB00001DFF10000
0028EFFD82003EF00000
18DDDDDDDDA404F00000
00000000000000600000
ENDCHAR
STARTCHAR O
ENCODING 79
SWIDTH 808 0
DWIDTH 15 0
BBX 15 13 0 -1
BITMAP
0000000100000000
0004ADFFFD820000
01BFFFCACFFE5000
0BFFE40006FFF400
4FFF400000AFFC00
8FFC0000005FFF10
9FFB0000003FFF30
8FFC0000005FFF10
4FFF2000009FFC00
0BFFB10005FFF300
01BFFD98BFFE5000
0005CFFFFD810000
0000013310000000
ENDCHAR
STARTCHAR P
ENCODING 80
SWIDTH 746 0
DWIDTH 13 0
BBX 16 13 -2 -1
BITMAP
1777766554310000
016DFFFFFFFFC710
00009FFA5569EFD2
00007FF700001EF8
00006FF700004FF6
00006FFA679CFE70
00006FFFFEC95000
00006FFC10000000
00005FFD00000000
00005FFD00000000
00007FFE10000000
004CFFFFE9300000
0588887777730000
ENDCHAR
STARTCHAR Q
ENCODING 81
SWIDTH 789 0
DWIDTH 14 0
BBX 16 18 0 -6
BITMAP
0000479A96100000
004DFFFFFFE60000
04FFFA315EFF7000
0DFF800003FFF300
4FFE100000BFF800
6FFB0000008FFB00
6FFC0000008FFB00
3FFE100000BFF800
0CFF700003FFE100
03EFF7226EFF5000
003CFFFFFFC40000
0000379EFE000000
00000009FF700000
00000005FFE86420
00000004FFFFFE95
0000004EFFB73000
000006D951000000
0000120000000000
ENDCHAR
STARTCHAR R
ENCODING 82
SWIDTH 826 0
DWIDTH 15 0
BBX 22 17 -2 -5
BITMAP
1699887766420000000000
004AFFFFFFFFEA30000000
00005FFB3357CFF4000000
00004FFA00000CFB000000
00004FFA00004EF7000000
00003FFD78ADFD60000000
00003FFFFDFFB000000000
00003FFF009FF400000000
00003FFF001EFE10000000
00002FFF1008FFA0000000
00006FFF4001EFF5000000
004CFFFFFC616FFE200000
0377666665540DFFDCCB82
00000000000007FFFE8200
0000000000003EFB500000
000000000002C820000000
0000000000030000000000
ENDCHAR
STARTCHAR S
ENCODING 83
SWIDTH 661 0
DWIDTH 12 0
BBX 12 15 0 -2
BITMAP
000000000002
0038ABA72066
0AFFDBCFFBF5
7FF60003AFF3
CFF5000007F1
BFFFB7300080
4EFFFFFE8200
03BFFFFFFF70
01026AEFFFF5
08000007FFFA
0C900000AFF9
0DFB4115EFE3
0E7EFFFFFC30
180147762000
210000000000
ENDCHAR
STARTCHAR T
ENCODING 84
SWIDTH 754 0
DWIDTH 14 0
BBX 13 14 0 -1
BITMAP
01111000000000
3FFFFFFFFFEEB0
2FD88FFFA9BFB0
1F800EFF401F90
0F300EFF400B70
0B000DFF300750
05000DFF300230
00000CFF200000
00000CFF200000
00000CFF100000
00000BFF100000
00004DFF500000
004CFFFFFD6000
01444444455300
ENDCHAR
STARTCHAR U
ENCODING 85
SWIDTH 725 0
DWIDTH 13 0
BBX 17 13 -2 -1
BITMAP
16654321029CCCB810
006DFFFB5005FF6000
0007FFC00000DF1000
0008FFB00000DF0000
0009FFB00000CE0000
0009FFB00000CE0000
0009FFA00000BD0000
0009FFB00000BC0000
0008FFC00000CB0000
0005FFF40004F70000
0000CFFE658FE10000
00001BFFFFFC300000
000000367630000000
ENDCHAR
STARTCHAR V
ENCODING 86
SWIDTH 786 0
DWIDTH 14 0
BBX 20 15 -3 -2
BITMAP
00000014882000000000
00259CFF8003A9752000
16ACEFFB000019FFFD71
00004FFF200001EB3000
00000CFF800007F30000
000005FFE1001EA00000
000000DFF6008F200000
0000005FFD01E9000000
0000000DFF59F2000000
00000006FFCF90000000
00000000DFFE10000000
000000006FF800000000
000000000DE100000000
00000000078000000000
00000000011000000000
ENDCHAR
STARTCHAR W
ENCODING 87
SWIDTH 1026 0
DWIDTH 18 0
BBX 24 14 -3 -2
BITMAP
012345789A50001675420000
15AEFFFFA20061005CFFFDA4
0000AFFB0000D800007F9300
00003FFF2006FE2000BE0000
00000CFF700CFF9002F80000
000006FFD04FFFF307F20000
000000EFF3BFFFFB0DB00000
0000008FFCFF5FFF8F600000
0000002FFFFB0AFFFE100000
0000000AFFF403FFF9000000
00000004FFC000AFF3000000
00000000CF40003FC0000000
000000006C00000B60000000
000000001400000310000000
ENDCHAR
STARTCHAR X
ENCODING 88
SWIDTH 860 0
DWIDTH 15 0
BBX 19 13 -2 -1
BITMAP
00000000001000000000
02789BCDE93233455510
00159FFF5018FFFD7100
000008FFD103EF600000
000000BFFC5EE3000000
0000001DFFFD20000000
00000003FFFA00000000
0000001CFFFF60000000
000003DF99FFF3000000
00004EF600CFFE100000
004AFF80002EFFB00000
29CDDDEA101AFFFE8200
0000000005CCCBBA9940
ENDCHAR
STARTCHAR Y
ENCODING 89
SWIDTH 848 0
DWIDTH 15 0
BBX 19 14 -2 -2
BITMAP
4667899A810000000000
16BFFFF8000687665510
0002AFFC10018FFE9200
00000BFFA0003E810000
000001DFF803E9000000
0000002EFF8EA0000000
00000003EFFB00000000
000000006FF300000000
000000006FF400000000
000000006FF500000000
000000007FF700000000
000000009FFA10000000
0000016DFFFFFB610000
00000344333333320000
ENDCHAR
STARTCHAR Z
ENCODING 90
SWIDTH 685 0
DWIDTH 12 0
BBX 13 11 0 0
BITMAP
7BBCCCDDEEEF80
6FFDDCCDFFFB00
2F80001DFFD100
0D5000BFFF3000
092009FFF60000
04007FFF900510
0005FFFC100D10
003FFFE2006F00
02EFFF4001DE00
1CFFFFEEDDFD00
59AAAAAAABB900
ENDCHAR
STARTCHAR bracketleft
ENCODING 91
SWIDTH 380 0
DWIDTH 7 0
BBX 7 18 1 -3
BITMAP
BBBAAA50
DFFFA300
DFF20000
DFF00000
CFF00000
CFE00000
BFE00000
BFE00000
AFE00000
AFD00000
AFD00000
9FD00000
9FD00000
8FC00000
8FC00000
8FE60000
7FFFD600
12222210
ENDCHAR
STARTCHAR backslash
ENCODING 92
SWIDTH 680 0
DWIDTH 12 0
BBX 12 18 0 -2
BITMAP
01A200000000
5EFB00000000
6FFF40000000
0CFFD0000000
03FFF6000000
008FFE100000
001DFF900000
0005FFF30000
0000AFFB0000
00002EFF5000
000007FFD000
000000CFF700
0000003FFE10
00000009FF90
00000001EFF3
000000005FFB
000000000BE6
000000000210
ENDCHAR
STARTCHAR bracketright
ENCODING 93
SWIDTH 371 0
DWIDTH 7 0
BBX 7 18 -1 -3
BITMAP
49AABBB0
029FFFE0
0002FFD0
0000EFD0
0000EFD0
0000EFC0
0000DFC0
0000DFB0
0000DFB0
0000DFA0
0000CFA0
0000CFA0
0000CF90
0000CF90
0000BF80
0006EF80
06DFFF70
12222210
ENDCHAR
STARTCHAR asciicircum
ENCODING 94
SWIDTH 671 0
DWIDTH 12 0
BBX 12 11 0 5
BITMAP
000007200000
00002FB00000
0000BFF60000
0004FFFE1000
000DFFFFA000
007FFE5FF400
02EFF806FD10
0AFFE1009F80
4FFF70000CF3
CFFE100002EC
48C700000011
ENDCHAR
STARTCHAR underscore
ENCODING 95
SWIDTH 840 0
DWIDTH 15 0
BBX 16 4 0 -2
BITMAP
3344444555556660
FFFFFFFFFFFFFFF1
FFFFFFFFFFFFFFF1
ABBBCCCCDDDDEEE2
ENDCHAR
STARTCHAR grave
ENCODING 96
SWIDTH 707 0
DWIDTH 13 0
BBX 4 5 5 10
BITMAP
17A0
8FF2
1EF7
07FB
0061
ENDCHAR
STARTCHAR a
ENCODING 97
SWIDTH 572 0
DWIDTH 10 0
BBX 12 11 0 -1
BITMAP
004BEEC70000
07FD77EFB000
1FF8006FF300
1EF8003FF600
0375545FF600
1AFFDDFFF500
8FF5007FF300
9FF5009FF200
2DFFDEFFF000
005787FFFC50
000000655431
ENDCHAR
STARTCHAR b
ENCODING 98
SWIDTH 723 0
DWIDTH 13 0
BBX 16 17 -3 -3
BITMAP
0000024620000000
17BDFFFF30000000
0037CFFF30000000
00001FFF20000000
00000FFF10000000
00000FFF10000000
00000EFF00000000
00000DFF00000000
00000DFE35665100
00000CFFFFFFFF90
00000CFE5226FFF7
00000BFC00007FFC
00000AFB00005FFB
00000AFB0000AFF5
00000BFB347CFF70
0002CFFFFFFE9200
0019A87653200000
ENDCHAR
STARTCHAR c
ENCODING 99
SWIDTH 589 0
DWIDTH 11 0
BBX 11 11 0 -2
BITMAP
0005ADDA4000
01BFFBCFF700
0AFF600CFF20
2FFC000BFF20
6FF900017400
6FF900000020
4FFD00000650
0DFFA1007E10
03EFFFDFF800
002AEFFD6000
000001100000
ENDCHAR
STARTCHAR d
ENCODING 100
SWIDTH 713 0
DWIDTH 13 0
BBX 15 18 0 -3
BITMAP
0000012100000000
0000004BFEDB8000
000000003CFF9000
000000000AFF7000
000000000AFF5000
000000000BFF3000
000000000CFF2000
000000000DFF0000
0019DFEC7EFD0000
03EFFDBDFFFB0000
0DFF60003FF90000
3FFB00001FF70000
4FF800002FF50000
1FFA00003FF30000
09FF91004FF10000
008FFFDCFFE00000
000268A9AFF96200
000000006DB86410
ENDCHAR
STARTCHAR e
ENCODING 101
SWIDTH 593 0
DWIDTH 11 0
BBX 11 11 0 -2
BITMAP
000024410000
004CFFFE6000
05FFC8BFF700
1EFD000AFE10
5FF82225FF50
6FFFFFFFFF70
5FFA66655520
1EFD10001400
04FFEA9AD300
002BFFEA2000
000001000000
ENDCHAR
STARTCHAR f
ENCODING 102
SWIDTH 507 0
DWIDTH 9 0
BBX 12 26 -1 -8
BITMAP
000000242000
000009FFFA10
00008FE59FA0
0001FF704FF2
0004FF407FF2
0006FF300650
0007FF300000
0006FF400000
0005FF600000
0BFFFFFFFD00
0689FFD88700
0000FFC00000
0000DFD00000
0000BFF00000
0000AFF20000
00008FF40000
00006FF50000
00004FF70000
00002FF90000
00000FFA0000
27200EFA0000
CFB00EF80000
CF902FF40000
5FD5CFC00000
06EFFB100000
000210000000
ENDCHAR
STARTCHAR g
ENCODING 103
SWIDTH 606 0
DWIDTH 11 0
BBX 12 21 0 -9
BITMAP
000000001420
00000004EFF5
0000121EEFFB
004BFFFF6DF6
06FF839FF520
2EF9000BFE10
7FF30005FF50
8FF20004FF60
6FF40006FF40
1EFA000CFD00
03EFA6BFD200
05DFDDC81000
0EFF95420000
08FFFFFFE700
09FFB89EFF90
8FF50001CFF3
EFD000005FF7
EFD000005FF7
9FF50000BFF2
1BFFA78DFF50
004ADEDC7200
ENDCHAR
STARTCHAR h
ENCODING 104
SWIDTH 678 0
DWIDTH 12 0
BBX 17 18 -3 -2
BITMAP
000001351000000000
169BEFFF2000000000
0037CFFF1000000000
00002FFF1000000000
00002FFF0000000000
00001FFF0000000000
00001FFE0000000000
00000FFD0000000000
00000FFD2431000000
00000EFFFFFFB40000
00000DFD535DFF3000
00000DFB0003FF9000
00000CFA0001FFA000
00000CF90000FF8000
00001CFB0000FF5000
0006DFFFC302FF4000
00132110018EFFF810
000000000011223320
ENDCHAR
STARTCHAR i
ENCODING 105
SWIDTH 393 0
DWIDTH 7 0
BBX 9 15 -1 0
BITMAP
0000230000
0006FF8000
000BFFD000
0007FFA000
0000550000
1555554000
03AFFFD000
0004FFB000
0002FFA000
0001FF9000
0001FF8000
0000FF7000
0000EF6000
0019FFB100
04CEEFFE50
ENDCHAR
STARTCHAR j
ENCODING 106
SWIDTH 385 0
DWIDTH 7 0
BBX 9 21 -2 -7
BITMAP
0000110000
0006FF5000
000DFFC000
000AFF9000
0001660000
0024679400
017DFFF600
00007FF800
00003FF900
00001FFB00
00000EFC00
00000CFE00
00000BFF00
000009FF20
000007FF30
023006FF30
2FF504FF20
3FF505FF00
0CF84CF900
01AFFF9000
0000200000
ENDCHAR
STARTCHAR k
ENCODING 107
SWIDTH 749 0
DWIDTH 13 0
BBX 18 17 -2 -2
BITMAP
012356720000000000
47BEFFF40000000000
0002FFF40000000000
0001FFF34888888840
0000FFF305EFFFA300
0000FFF2009FC30000
0000EFF21BF8000000
0000DFF4DF60000000
0000CFFEFFA0000000
0000BFFD9FF4000000
0000AFF10CFD000000
00009FF002FF700000
00008FE0007FE20000
0001AFF5000CFA0000
018EFFFEC614FFC840
02211000003DFEB741
000000000385200000
ENDCHAR
STARTCHAR l
ENCODING 108
SWIDTH 369 0
DWIDTH 7 0
BBX 10 18 -2 -2
BITMAP
4666667200
049EFFF400
0001FFF300
0000FFF300
0000EFF200
0000DFF200
0000DFF100
0000CFF000
0000BFF000
0000BFE000
0000AFE000
00009FD000
00009FD000
00008FC000
00007FC000
0000AFD300
004DFFFF81
0155433221
ENDCHAR
STARTCHAR m
ENCODING 109
SWIDTH 990 0
DWIDTH 18 0
BBX 21 9 -2 1
BITMAP
001368B357720036510000
29EFFFFEFFFE8DFFFE2000
0014EFFB78FFFFAAFFA000
0000BFE0008FF600AFD000
00009FD0005FF1008FD000
00007FB0005FE0008FC000
00007FB0005FC000AFB000
005BDDDB407FC04BEFFC40
000000016CDDDB40000120
ENDCHAR
STARTCHAR n
ENCODING 110
SWIDTH 643 0
DWIDTH 12 0
BBX 15 9 -2 1
BITMAP
001368B247620000
29EFFFFEFFFF5000
0014EFFB79FFD000
0000BFE0008FF100
00009FD0005FF200
00007FB0005FF000
00007FB0005FD000
005BDDDB307FC000
000000016CDDDB40
ENDCHAR
STARTCHAR o
ENCODING 111
SWIDTH 705 0
DWIDTH 13 0
BBX 13 10 0 -1
BITMAP
00026787510000
02BFFFDFFF8000
2EFF60008FFB00
9FF600000BFF40
CFF1000007FF70
BFF3000007FF60
6FFA00001DFE10
09FFB657EFE400
004AEFFFD82000
00000120000000
ENDCHAR
STARTCHAR p
ENCODING 112
SWIDTH 723 0
DWIDTH 13 0
BBX 15 15 -2 -5
BITMAP
468ABDF000000000
05AEFFF79A861000
0001FFFFCDFFE600
0000EFF2002BFF40
0000DFF10001EFB0
0000CFF10000DFC0
0000BFF10002FFA0
0000AFF5103CFF40
00009FFFFFFFE500
00008FF478861000
00007FF100000000
00006FF100000000
00008FF500000000
006CFFFFD7200000
0455433221000000
ENDCHAR
STARTCHAR q
ENCODING 113
SWIDTH 682 0
DWIDTH 12 0
BBX 15 15 0 -4
BITMAP
0000000022223310
00000000FFFFC500
006BEFECFFF50000
0BFFB87AFFE00000
7FF60001FFD00000
BFE00001FFC00000
CFE00001FFB00000
8FF60001FFB00000
1CFF967BFFA00000
018FFFFDFF900000
00003311FF800000
00000002FF700000
00000002FF600000
0000005BFFB40000
000028BBCCDEB500
ENDCHAR
STARTCHAR r
ENCODING 114
SWIDTH 595 0
DWIDTH 11 0
BBX 13 12 -1 -1
BITMAP
00014890255100
5ADFFFD9FFFD10
038CFFFEDFFF30
0004FFF209FC00
0002FFA0000000
0001FFA0000000
0000EF90000000
0000DF90000000
0000BFA1000000
0018FFFEA40000
05DEDBA8652000
02100000000000
ENDCHAR
STARTCHAR s
ENCODING 115
SWIDTH 533 0
DWIDTH 10 0
BBX 10 12 0 -1
BITMAP
0027861050
08FFFFE7C0
6FE203BFE0
9FE30009E0
6FFFB61090
0AFFFFE820
115CFFFFC1
3A0038EFF7
5FA1003FF8
6FFEA8CFE2
855ADED920
2000000000
ENDCHAR
STARTCHAR t
ENCODING 116
SWIDTH 422 0
DWIDTH 8 0
BBX 9 18 -1 -1
BITMAP
0000120000
00006F1000
0000AF0000
0002FD0000
003CFB0000
1CFFFE9860
2BDFFFFFF0
005FF72340
006FF50000
007FF40000
008FF30000
00AFF10000
00BFF00010
00CFE00060
00CFE00780
009FFBAF40
002EFFFA00
0001774000
ENDCHAR
STARTCHAR u
ENCODING 117
SWIDTH 614 0
DWIDTH 11 0
BBX 15 10 -2 -1
BITMAP
2ADDDD1588897000
006EFE004CFFA000
000DFC0001FF8000
000DFB0002FF6000
000DFA0002FF3000
000DFA0003FF1000
000BFC0006FD0000
0005FFB79FFB0000
00007EFFEAFFC610
0000003314A85200
ENDCHAR
STARTCHAR v
ENCODING 118
SWIDTH 639 0
DWIDTH 12 0
BBX 16 12 -2 -2
BITMAP
0002479810000000
6CFFFF7265432100
004EFF203CFFFE82
0007FF9000CF6100
0000DFF202F90000
00004FF90AF20000
00000BFF5F900000
000003FFFF200000
0000009FF9000000
0000001EF2000000
0000000790000000
0000000020000000
ENDCHAR
STARTCHAR w
ENCODING 119
SWIDTH 805 0
DWIDTH 15 0
BBX 19 11 -2 -1
BITMAP
6ABBCDD822117BA99840
039FFF20097005FE8200
000AFF701ED006F70000
0003FFE07FF50DE10000
0000BFF6DFFC5F800000
00004FFEFBFFEF100000
00000BFFC1EFF9000000
000004FF509FF2000000
000000CD002FA0000000
00000057000940000000
00000001000100000000
ENDCHAR
STARTCHAR x
ENCODING 120
SWIDTH 717 0
DWIDTH 13 0
BBX 17 12 -2 -1
BITMAP
000000000100000000
013579AC8200000000
269CFFF339AAABB610
0000AFFC11CFE71000
00000BFFA8FB100000
000001DFFF80000000
0000003FFF40000000
000001CFFFE2000000
00003DF74FFC000000
038DFFF815FFA10000
0112345654EFFFC820
000000006986431000
ENDCHAR
STARTCHAR y
ENCODING 121
SWIDTH 655 0
DWIDTH 12 0
BBX 13 19 -1 -9
BITMAP
64000000000000
1CE9406CA97610
01DFFC02BFFF30
00BFF8000DFF30
01FFF3000DFF20
04FFE0000DFF10
05FFD0000DFF10
02FFF9224EFF00
006FFFFFFFFF00
000279974FFE00
000000000FFD00
000000001FFD00
000000002FFC00
00BD30004FFA00
04FF70008FF600
02FF2001EFE100
007FD88DFE4000
0005CFFEA30000
00000010000000
ENDCHAR
STARTCHAR z
ENCODING 122
SWIDTH 549 0
DWIDTH 10 0
BBX 11 11 0 -1
BITMAP
233444555630
9FFFFFFFFD10
6F9546FFF300
4F301DFF7000
1D00AFFB0000
0607FFD11400
004FFF407600
02EFF800D700
1CFFF988F800
6CDEFFFFF800
000001234300
ENDCHAR
STARTCHAR braceleft
ENCODING 123
SWIDTH 708 0
DWIDTH 13 0
BBX 11 18 1 -3
BITMAP
0006BBBAA710
0008FFFC5000
0007FF700000
0007FF500000
0007FF500000
0006FF500000
0006FF400000
0007FF400000
28DFFF400000
048DFF400000
0004FF300000
0004FF300000
0003FF300000
0003FF300000
0002FF200000
0002FF920000
0001FFFF9100
000022222200
ENDCHAR
STARTCHAR bar
ENCODING 124
SWIDTH 304 0
DWIDTH 5 0
BBX 4 18 1 -2
BITMAP
0010
BFF3
BFF3
BFF3
AFF3
AFF2
AFF2
AFF2
AFF2
AFF2
9FF1
9FF1
9FF1
9FF1
9FF0
9FF0
8FF0
3550
ENDCHAR
STARTCHAR braceright
ENCODING 125
SWIDTH 517 0
DWIDTH 9 0
BBX 10 18 0 -3
BITMAP
5AAABBA000
03AFFFC000
0003FFC000
0001FFC000
0000FFB000
0000FFB000
0000FFA000
0000FFB000
0000EFFE94
0000EFEA51
0000EF9000
0000EF8000
0000DF8000
0000DF7000
0000DF7000
0006EF7000
06DFFF6000
1222221000
ENDCHAR
STARTCHAR asciitilde
ENCODING 126
SWIDTH 466 0
DWIDTH 8 0
BBX 9 5 0 3
BITMAP
0242000130
DFFFD89E60
FFFFFFFF60
D526BEEB30
1000000000
ENDCHAR
STARTCHAR uni00A0
ENCODING 160
SWIDTH 320 0
DWIDTH 6 0
BBX 1 1 0 0
BITMAP
00
ENDCHAR
STARTCHAR exclamdown
ENCODING 161
SWIDTH 305 0
DWIDTH 6 0
BBX 6 16 0 -6
BITMAP
006C91
00DFF6
006EC2
003410
00DF60
00FF50
03FF50
06FF40
09FF40
0BFF30
0EFF20
2FFF20
5FFF10
7FFF00
AFFF00
467800
ENDCHAR
STARTCHAR cent
ENCODING 162
SWIDTH 417 0
DWIDTH 8 0
BBX 9 15 -1 -2
BITMAP
0002DD4000
0001FF3000
0000FF3000
004CFFE600
03ED21BF40
0BF600BF70
1FF2001510
2FF1000000
0FF4000040
0AFC100760
02DFEBDC00
0018FF8100
0000FF3000
0001FF4000
0002DD4000
ENDCHAR
STARTCHAR sterling
ENCODING 163
SWIDTH 658 0
DWIDTH 12 0
BBX 12 14 0 -1
BITMAP
000000000005
00017BCB5068
001DFFEFFCF6
00BFF502BFF4
00FFC0000BF2
BBFFD98742F0
EFFFFFFF7080
655FF7331021
899EFCBB6007
EFFFFFFF801D
124FF656307D
008FE67778EC
03FFFFFFFFFB
04677899ABB8
ENDCHAR
STARTCHAR currency
ENCODING 164
SWIDTH 358 0
DWIDTH 6 0
BBX 7 7 0 3
BITMAP
17002400
BFDDEE20
3FECFB00
0F80DA00
1EECF900
AFBCDF20
36001600
ENDCHAR
STARTCHAR yen
ENCODING 165
SWIDTH 796 0
DWIDTH 14 0
BBX 17 12 -2 0
BITMAP
24578AA40000000000
37BFFF2002ABBAA820
0003EFC10009FB5000
00003EFB004E700000
000004EFA5E7000000
0000004FFF80000000
0000099CFD66200000
00001CBCFEAA200000
00000AACFFCC300000
0000156AFF89200000
0000003BFF72000000
00005ABBBBBB941000
ENDCHAR
STARTCHAR brokenbar
ENCODING 166
SWIDTH 304 0
DWIDTH 5 0
BBX 4 18 1 -2
BITMAP
0010
BFF3
BFF3
BFF3
AFF3
AFF3
AFF2
4541
0000
0000
5760
9FF1
9FF1
9FF1
9FF0
9FF0
8FF0
3550
ENDCHAR
STARTCHAR section
ENCODING 167
SWIDTH 646 0
DWIDTH 12 0
BBX 11 21 0 -5
BITMAP
0017BB820130
02DFEDFE6630
0DF7002BFE30
3FF300009F20
3FFC10000B20
1EFFE9300210
04EFFFFC4000
01CFFFFFFA00
0AFC6BFFFF80
2FF3003BFFD0
4FF70000DFD0
2FFFB402EFA0
08FFFFEFFC10
009FFFFFF500
0004BFFFFF40
0800028EFFB0
0D700002EFE0
0EF81000DFC0
0FDFE98CFF40
1A17CFFEA300
220000000000
ENDCHAR
STARTCHAR dieresis
ENCODING 168
SWIDTH 708 0
DWIDTH 13 0
BBX 6 3 3 14
BITMAP
2E90DC
3FB1EE
021011
ENDCHAR
STARTCHAR copyright
ENCODING 169
SWIDTH 700 0
DWIDTH 13 0
BBX 13 13 0 0
BITMAP
00000121000000
0039EFFFD70000
06FFC756CFC100
3FE518B718FB00
AF51DA3CA0CF40
EE07F107806F80
FD09E000005F90
DE07F200406F70
9F51ED6880BF30
2FD229B707FA00
05FE7446BFB100
002AEFFFC60000
00000221000000
ENDCHAR
STARTCHAR ordfeminine
ENCODING 170
SWIDTH 399 0
DWIDTH 7 0
BBX 9 9 -1 6
BITMAP
0002310000
03DFFE6000
0CF52EF100
07B41CF300
07EFFFF300
1FF41FF200
1DFDCFF100
01579FFC40
0000010000
ENDCHAR
STARTCHAR guillemotleft
ENCODING 171
SWIDTH 424 0
DWIDTH 8 0
BBX 8 10 0 -1
BITMAP
00180072
00AE03F5
06F81DE1
2EF2AF80
BFA4FF10
8FD2EF40
0CF45FB0
02EB09F2
005D01D5
00020020
ENDCHAR
STARTCHAR logicalnot
ENCODING 172
SWIDTH 541 0
DWIDTH 10 0
BBX 11 10 0 1
BITMAP
100000000000
600000000400
920000004700
9DBA9987D600
9FFFFFFFF500
9EDDCCCEF400
9200000AF300
50000006F200
00000007F400
0000004ABC40
ENDCHAR
STARTCHAR sfthyphen
ENCODING 173
SWIDTH 530 0
DWIDTH 10 0
BBX 10 4 0 4
BITMAP
BCBA988763
EFFFFFFFF7
FFFFFFFFF7
5444332210
ENDCHAR
STARTCHAR registered
ENCODING 174
SWIDTH 700 0
DWIDTH 13 0
BBX 13 12 0 0
BITMAP
0017BEFEA50000
04EFD978DFA000
2EF700101AFA00
9F74AECBE7DF30
DE003FE8D77F70
FD000E90005F90
EE000D80006F80
AF400CB200AF40
3FC1798725FB00
07FD52249FD100
004CFFFFE81000
00002443000000
ENDCHAR
STARTCHAR macron
ENCODING 175
SWIDTH 705 0
DWIDTH 13 0
BBX 6 3 4 13
BITMAP
366663
7FFFF8
7FFFF8
ENDCHAR
STARTCHAR degree
ENCODING 176
SWIDTH 364 0
DWIDTH 7 0
BBX 6 5 0 8
BITMAP
02AC70
0CECF5
1F70D9
0CEBF6
02AC70
ENDCHAR
STARTCHAR plusminus
ENCODING 177
SWIDTH 607 0
DWIDTH 11 0
BBX 11 12 0 0
BITMAP
000055400000
0000FFD00000
0000EFC00000
8FFEFFEBBA50
9FFFFFFFFF70
8DDCFFEBAA40
0000CFA00000
0000CF900000
110047400000
6FFFEDDCBA40
6FFFFFFFFF50
6DCCBBBAA930
ENDCHAR
STARTCHAR twosuperior
ENCODING 178
SWIDTH 440 0
DWIDTH 8 0
BBX 8 11 0 6
BITMAP
10000000
474AB820
2FFEDFE2
0FB00BF9
0E100BF8
08019FE4
036EFB48
0BFC30A8
9FFA9AF7
EFFFFFF6
22344552
ENDCHAR
STARTCHAR threesuperior
ENCODING 179
SWIDTH 442 0
DWIDTH 8 0
BBX 8 11 0 5
BITMAP
61023100
5CCFFE70
2FE77FF4
0E300AF7
05278FF3
013FFFF3
09014EFA
2F700DFA
5FFDDFE3
846BC920
20000000
ENDCHAR
STARTCHAR acute
ENCODING 180
SWIDTH 694 0
DWIDTH 13 0
BBX 4 5 5 13
BITMAP
0420
0EF6
4FF2
9F90
3910
ENDCHAR
STARTCHAR mu
ENCODING 181
SWIDTH 1000 0
DWIDTH 18 0
BBX 14 14 0 -5
BITMAP
4CDDD917888940
01AFF8017EFF50
003FF70007FF20
003FF50007FF00
003FF40008FD00
002FF40009FA00
002FF7000BF800
002FFE87CFF500
002FFFFFDCFEA4
001FF432089741
001FF300000000
001FF300000000
001FF300000000
0009A200000000
ENDCHAR
STARTCHAR paragraph
ENCODING 182
SWIDTH 782 0
DWIDTH 14 0
BBX 16 13 -1 -1
BITMAP
0002579ABBCCCD93
02BFFFFFFFFFA300
2EFC518F92FC0000
5FF2008F82FB0000
1DFC408F73FB0000
018EFEEFDCFB0000
000047CFDDFB0000
0000009F64FA0000
0000009F55FA0000
0000009F56FA0000
000000AFCEFD5000
000038EFFFFFFC50
0027987765543320
ENDCHAR
STARTCHAR periodcentered
ENCODING 183
SWIDTH 226 0
DWIDTH 4 0
BBX 4 4 0 5
BITMAP
0340
8FF9
BFFC
29A3
ENDCHAR
STARTCHAR cedilla
ENCODING 184
SWIDTH 780 0
DWIDTH 14 0
BBX 5 7 5 -4
BITMAP
023000
1E6000
AFD500
36CE00
559F10
BFFA00
044000
ENDCHAR
STARTCHAR onesuperior
ENCODING 185
SWIDTH 390 0
DWIDTH 7 0
BBX 7 10 0 6
BITMAP
00036300
5AEFF500
038FF400
002FF400
001FF400
001FF300
000FF300
000FF200
007FF800
07AAAA50
ENDCHAR
STARTCHAR ordmasculine
ENCODING 186
SWIDTH 449 0
DWIDTH 8 0
BBX 10 7 -1 7
BITMAP
0049BB9300
09FE98EF70
3FF2003FF2
5FE0001FF3
1EF6007FD1
03DFDEFC20
0004653000
ENDCHAR
STARTCHAR guillemotright
ENCODING 187
SWIDTH 415 0
DWIDTH 7 0
BBX 8 10 0 -1
BITMAP
63018000
BD14F500
5F90DE20
0DF56FB0
07FE1EF6
0AFB3FF3
2FE19F70
8F41FB00
A803D100
20002000
ENDCHAR
STARTCHAR onequarter
ENCODING 188
SWIDTH 918 0
DWIDTH 17 0
BBX 17 19 0 -3
BITMAP
000363000000391000
5AEFF5000000CFB000
038FF4000006FF5000
002FF400001EFB0000
001FF400009FE20000
001FF30003FF700000
000FF3000BFC000000
000FF2005FF3015000
007FF801DF900C6000
07AAAA58FD10AF6000
0000002EF507FF6000
000000AFB05FFF5400
000004FE23FCDF6B00
00000DF72EFAEFDC00
00007FC0ADCCEFDB00
0001EF300000BF4900
0009F9000028EFA300
001DE1000488888710
000130000000000000
ENDCHAR
STARTCHAR onehalf
ENCODING 189
SWIDTH 1007 0
DWIDTH 18 0
BBX 18 19 0 -3
BITMAP
000363000000391000
5AEFF5000000CFB000
038FF4000006FF5000
002FF400001EFB0000
001FF400009FE20000
001FF30003FF700000
000FF3000BFC000000
000FF2005FF3000000
007FF801DF90000000
07AAAA58FD1817A820
0000002EF50EEFFFF4
000000AFB00CE308FC
000004FE200B6006FD
00000DF70009105EF7
00007FC000032BFE69
0001EF300006FF715C
0009F900004FFA77EB
001DE10000AFFFFFF9
000130000034556774
ENDCHAR
STARTCHAR threequarters
ENCODING 190
SWIDTH 936 0
DWIDTH 17 0
BBX 17 19 0 -3
BITMAP
6102310000000A2000
5CCFFE7000007FE200
2FE77FF40002EFA000
0E300AF7000AFE1000
05278FF4004FF60000
013FFFF300CFB00000
09014EFA06FF200000
2F700DFA1EF8006000
5FFDDFE39FD007B000
846BC923FF405FB000
2000000BFA03EFB000
0000005FE12DFFA220
000001DF61CFBFAA20
000008FB0AFCBFDF20
00002FF26DCCDFEF10
0000BF8000006F8900
0004FD000016CFC400
0009F4000278888830
000030000000000000
ENDCHAR
STARTCHAR questiondown
ENCODING 191
SWIDTH 568 0
DWIDTH 10 0
BBX 12 17 -1 -6
BITMAP
000000015400
0000000BFFB0
0000000BFFE0
000000018930
000000096100
0000004FF500
000001BFF300
003AEFFFF100
05FFFC8AD000
0DFF60000000
2FFD00000000
2FFB00000013
0DFF300000A1
04FFE7102AD0
003BFFFFFFA0
000014554B60
000000000330
ENDCHAR
STARTCHAR Agrave
ENCODING 192
SWIDTH 788 0
DWIDTH 14 0
BBX 21 22 -3 -4
BITMAP
000000005C100000000000
00000004FF600000000000
00000000BFB00000000000
000000003FF10000000000
0000000005200000000000
0000000000000000000000
000029EEDDC20000000000
00000029FFF90000000000
000000005FFF1000000000
00000000AFFF8000000000
00000003FBFFE100000000
0000000BE1BFF800000000
0000004F604FFE10000000
000000CF765EFF80000000
000005FFFFFFFFE1000000
00000CD66544EFF8000000
00005F5000007FFE100000
004AFF6000001FFF700000
3ADFFFFB200009FFE40000
00000134400005FFFFEA30
0000000000003EFFC84100
000000000002B841000000
ENDCHAR
STARTCHAR Aacute
ENCODING 193
SWIDTH 788 0
DWIDTH 14 0
BBX 21 22 -3 -4
BITMAP
0000000001500000000000
0000000006FD1000000000
000000000BFA0000000000
000000001FF20000000000
0000000006700000000000
0000000000000000000000
000029EEDDC20000000000
00000029FFF90000000000
000000005FFF1000000000
00000000AFFF8000000000
00000003FBFFE100000000
0000000BE1BFF800000000
0000004F604FFE10000000
000000CF765EFF80000000
000005FFFFFFFFE1000000
00000CD66544EFF8000000
00005F5000007FFE100000
004AFF6000001FFF700000
3ADFFFFB200009FFE40000
00000134400005FFFFEA30
0000000000003EFFC84100
000000000002B841000000
ENDCHAR
STARTCHAR Acircumflex
ENCODING 194
SWIDTH 788 0
DWIDTH 14 0
BBX 21 22 -3 -4
BITMAP
0000000003600000000000
000000001DF50000000000
00000000CFFE2000000000
00000009F97EC100000000
0000000740028100000000
0000000000000000000000
000029EEDDC20000000000
00000029FFF90000000000
000000005FFF1000000000
00000000AFFF8000000000
00000003FBFFE100000000
0000000BE1BFF800000000
0000004F604FFE10000000
000000CF765EFF80000000
000005FFFFFFFFE1000000
00000CD66544EFF8000000
00005F5000007FFE100000
004AFF6000001FFF700000
3ADFFFFB200009FFE40000
00000134400005FFFFEA30
0000000000003EFFC84100
000000000002B841000000
ENDCHAR
STARTCHAR Atilde
ENCODING 195
SWIDTH 788 0
DWIDTH 14 0
BBX 21 21 -3 -4
BITMAP
000000039A519000000000
00000007FFFFF000000000
0000000787DFC000000000
0000000100000000000000
0000000000000000000000
000029EEDDC20000000000
00000029FFF90000000000
000000005FFF1000000000
00000000AFFF8000000000
00000003FBFFE100000000
0000000BE1BFF800000000
0000004F604FFE10000000
000000CF765EFF80000000
000005FFFFFFFFE1000000
00000CD66544EFF8000000
00005F5000007FFE100000
004AFF6000001FFF700000
3ADFFFFB200009FFE40000
00000134400005FFFFEA30
0000000000003EFFC84100
000000000002B841000000
ENDCHAR
STARTCHAR Adieresis
ENCODING 196
SWIDTH 788 0
DWIDTH 14 0
BBX 21 20 -3 -4
BITMAP
00000006F53E8000000000
00000007F74FA000000000
0000000020020000000000
0000000000000000000000
000029EEDDC20000000000
00000029FFF90000000000
000000005FFF1000000000
00000000AFFF8000000000
00000003FBFFE100000000
0000000BE1BFF800000000
0000004F604FFE10000000
000000CF765EFF80000000
000005FFFFFFFFE1000000
00000CD66544EFF8000000
00005F5000007FFE100000
004AFF6000001FFF700000
3ADFFFFB200009FFE40000
00000134400005FFFFEA30
0000000000003EFFC84100
000000000002B841000000
ENDCHAR
STARTCHAR Aring
ENCODING 197
SWIDTH 788 0
DWIDTH 14 0
BBX 21 20 -3 -4
BITMAP
0000000001300000000000
000000004EFA0000000000
000000009A3F1000000000
000000006ECC0000000000
000029EEDFF30000000000
00000029FFF80000000000
000000005FFE1000000000
00000000AFFF8000000000
00000003FBFFE100000000
0000000BE1BFF800000000
0000004F604FFE10000000
000000CF765EFF80000000
000005FFFFFFFFE1000000
00000CD66544EFF8000000
00005F5000007FFE100000
004AFF6000001FFF700000
3ADFFFFB200009FFE40000
00000134400005FFFFEA30
0000000000003EFFC84100
000000000002B841000000
ENDCHAR
STARTCHAR AE
ENCODING 198
SWIDTH 1019 0
DWIDTH 18 0
BBX 23 15 -5 -2
BITMAP
000000245677899ABCCDEE90
00000008FFFFFFFFFECBDF90
000000002BFFFFFC00003F80
0000000001FE9FFC00300C80
000000000AF66FFC00A00570
000000004FB06FFB03F00050
00000000DE206FFC5BF00000
00000007F6005FFFFFE00220
0000002FF998AFFD8DE00620
000000BFFFFFFFFA04D00B20
000005F733335FFA00801F20
00002DB000005FFA22227F30
005BFFC2016CFFFFFFFFFF30
28BCDEFE7666666655555510
000000012000000000000000
ENDCHAR
STARTCHAR Ccedilla
ENCODING 199
SWIDTH 766 0
DWIDTH 14 0
BBX 14 21 0 -7
BITMAP
00000000000001
00000245410037
0005CFFFFF92D5
00AFFFDA9DFFF2
08FFF600009FF0
2FFF8000000AC0
7FFE1000000190
9FFB0000000020
9FFB0000000000
7FFD0000000010
4FFF2000000160
0CFFB0000007A0
02EFFB20017FD0
003DFFFEDFFCD1
00016BFFEC7034
000004F3000001
00001DFE400000
0000024CD00000
0000096CD00000
00001CFF600000
00000031000000
ENDCHAR
STARTCHAR Egrave
ENCODING 200
SWIDTH 781 0
DWIDTH 14 0
BBX 16 19 -2 -1
BITMAP
0000000397000000
0000000DFC000000
00000005FF200000
00000000CF600000
0000000034000000
0012345689ABCDE5
17CFFFFFFEDCAFF4
00029FFF00000AF3
00004FFF000403F3
00003FFE005600B2
00003FFE00D60041
00002FFE48F60000
00002FFFFFF50040
00001FFE8CF50090
00000FFD01E502C0
00000FFC004407C0
00001FFC22232CC0
004AFFFFFFFFFFD0
0466666655555540
ENDCHAR
STARTCHAR Eacute
ENCODING 201
SWIDTH 781 0
DWIDTH 14 0
BBX 16 19 -2 -1
BITMAP
0000000005100000
000000001FE50000
000000006FE10000
00000000BF700000
0000000039000000
0012345689ABCDE5
17CFFFFFFEDCAFF4
00029FFF00000AF3
00004FFF000403F3
00003FFE005600B2
00003FFE00D60041
00002FFE48F60000
00002FFFFFF50040
00001FFE8CF50090
00000FFD01E502C0
00000FFC004407C0
00001FFC22232CC0
004AFFFFFFFFFFD0
0466666655555540
ENDCHAR
STARTCHAR Ecircumflex
ENCODING 202
SWIDTH 781 0
DWIDTH 14 0
BBX 16 20 -2 -1
BITMAP
0000000063000000
00000005FD100000
0000002EFFB00000
000001DE69F80000
0000018100460000
0000000000000000
0012345689ABCDE5
17CFFFFFFEDCAFF4
00029FFF00000AF3
00004FFF000403F3
00003FFE005600B2
00003FFE00D60041
00002FFE48F60000
00002FFFFFF50040
00001FFE8CF50090
00000FFD01E502C0
00000FFC004407C0
00001FFC22232CC0
004AFFFFFFFFFFD0
0466666655555540
ENDCHAR
STARTCHAR Edieresis
ENCODING 203
SWIDTH 781 0
DWIDTH 14 0
BBX 16 17 -2 -1
BITMAP
0000006F53E80000
0000007F74FA0000
0000000200200000
0012345689ABCDE5
17CFFFFFFEDCAFF4
00029FFF00000AF3
00004FFF000403F3
00003FFE005600B2
00003FFE00D60041
00002FFE48F60000
00002FFFFFF50040
00001FFE8CF50090
00000FFD01E502C0
00000FFC004407C0
00001FFC22232CC0
004AFFFFFFFFFFD0
0466666655555540
ENDCHAR
STARTCHAR Igrave
ENCODING 204
SWIDTH 445 0
DWIDTH 8 0
BBX 12 20 -2 -2
BITMAP
00003A600000
0000EFB00000
00006FF10000
00000DF50000
000003300000
166655555541
017DFFFFE930
00008FFD1000
00005FFD0000
00005FFC0000
00004FFC0000
00003FFB0000
00003FFB0000
00002FFB0000
00002FFA0000
00001FFA0000
00000FF90000
00000FF90000
0005BFFE9300
027888888861
ENDCHAR
STARTCHAR Iacute
ENCODING 205
SWIDTH 445 0
DWIDTH 8 0
BBX 12 20 -2 -2
BITMAP
000000420000
000000DF6000
000004FF2000
000009F90000
000003910000
166655555541
017DFFFFE930
00008FFD1000
00005FFD0000
00005FFC0000
00004FFC0000
00003FFB0000
00003FFB0000
00002FFB0000
00002FFA0000
00001FFA0000
00000FF90000
00000FF90000
0005BFFE9300
027888888861
ENDCHAR
STARTCHAR Icircumflex
ENCODING 206
SWIDTH 445 0
DWIDTH 8 0
BBX 12 20 -2 -2
BITMAP
000002700000
00001CF70000
0000AFFF4000
0007FB6EE200
000550018200
166655555541
017DFFFFE930
00008FFD1000
00005FFD0000
00005FFC0000
00004FFC0000
00003FFB0000
00003FFB0000
00002FFB0000
00002FFA0000
00001FFA0000
00000FF90000
00000FF90000
0005BFFE9300
027888888861
ENDCHAR
STARTCHAR Idieresis
ENCODING 207
SWIDTH 445 0
DWIDTH 8 0
BBX 12 18 -2 -2
BITMAP
0004E72EA000
0005F92FC000
000020021000
166655555541
017DFFFFE930
00008FFD1000
00005FFD0000
00005FFC0000
00004FFC0000
00003FFB0000
00003FFB0000
00002FFB0000
00002FFA0000
00001FFA0000
00000FF90000
00000FF90000
0005BFFE9300
027888888861
ENDCHAR
STARTCHAR Eth
ENCODING 208
SWIDTH 1000 0
DWIDTH 18 0
BBX 18 14 0 -1
BITMAP
110000000000000000
28EFFFFFFFFEA60000
0016DFFFEBBDFFD300
00000EFF90004EFE20
00000DFF900007FFB0
00000BFF800001FFF2
02DCBEFFC88300EFF4
03FFFFFFFFF500DFF3
02766AFF844100FFF2
000007FF500003FFC0
000007FF40001BFF50
000009FF8668DFF800
0005DFFFFFFFEA4000
006876543321000000
ENDCHAR
STARTCHAR Ntilde
ENCODING 209
SWIDTH 840 0
DWIDTH 15 0
BBX 19 19 -2 -1
BITMAP
00000008A72540000000
0000002FFFFF50000000
0000002C6BFE40000000
00000000000000000000
00000000000000011110
17BBBBAA15BFFFFFFA30
0029FFFFB0039EFA2000
00004FFFF80008F30000
00003FFFFF5008F30000
00003FAEFFE307F30000
00003F84FFFD17F20000
00003F806FFFB7F20000
00003F9008FFFEF20000
00003F9000AFFFF10000
00003FA0001CFFF10000
00004FB00001DFF10000
0028EFFD82003EF00000
18DDDDDDDDA404F00000
00000000000000600000
ENDCHAR
STARTCHAR Ograve
ENCODING 210
SWIDTH 808 0
DWIDTH 15 0
BBX 15 18 0 -1
BITMAP
0000005B20000000
000003FF70000000
000000AFC0000000
0000002FF2000000
0000000520000000
0000000100000000
0004ADFFFD820000
01BFFFCACFFE5000
0BFFE40006FFF400
4FFF400000AFFC00
8FFC0000005FFF10
9FFB0000003FFF30
8FFC0000005FFF10
4FFF2000009FFC00
0BFFB10005FFF300
01BFFD98BFFE5000
0005CFFFFD810000
0000013310000000
ENDCHAR
STARTCHAR Oacute
ENCODING 211
SWIDTH 808 0
DWIDTH 15 0
BBX 15 18 0 -1
BITMAP
0000000420000000
0000000DF7000000
0000003FF3000000
0000008FA0000000
0000002920000000
0000000100000000
0004ADFFFD820000
01BFFFCACFFE5000
0BFFE40006FFF400
4FFF400000AFFC00
8FFC0000005FFF10
9FFB0000003FFF30
8FFC0000005FFF10
4FFF2000009FFC00
0BFFB10005FFF300
01BFFD98BFFE5000
0005CFFFFD810000
0000013310000000
ENDCHAR
STARTCHAR Ocircumflex
ENCODING 212
SWIDTH 808 0
DWIDTH 15 0
BBX 15 18 0 -1
BITMAP
0000002700000000
000000CF70000000
000009FFF4000000
00006FB6DE200000
0000550018200000
0000000100000000
0004ADFFFD820000
01BFFFCACFFE5000
0BFFE40006FFF400
4FFF400000AFFC00
8FFC0000005FFF10
9FFB0000003FFF30
8FFC0000005FFF10
4FFF2000009FFC00
0BFFB10005FFF300
01BFFD98BFFE5000
0005CFFFFD810000
0000013310000000
ENDCHAR
STARTCHAR Otilde
ENCODING 213
SWIDTH 808 0
DWIDTH 15 0
BBX 15 17 0 -1
BITMAP
000008A725400000
00002FFFFF500000
00002C6BFE400000
0000000000000000
0000000100000000
0004ADFFFD820000
01BFFFCACFFE5000
0BFFE40006FFF400
4FFF400000AFFC00
8FFC0000005FFF10
9FFB0000003FFF30
8FFC0000005FFF10
4FFF2000009FFC00
0BFFB10005FFF300
01BFFD98BFFE5000
0005CFFFFD810000
0000013310000000
ENDCHAR
STARTCHAR Odieresis
ENCODING 214
SWIDTH 808 0
DWIDTH 15 0
BBX 15 16 0 -1
BITMAP
00003E81DB000000
00004F92FC000000
0000020011000000
0000000100000000
0004ADFFFD820000
01BFFFCACFFE5000
0BFFE40006FFF400
4FFF400000AFFC00
8FFC0000005FFF10
9FFB0000003FFF30
8FFC0000005FFF10
4FFF2000009FFC00
0BFFB10005FFF300
01BFFD98BFFE5000
0005CFFFFD810000
0000013310000000
ENDCHAR
STARTCHAR multiply
ENCODING 215
SWIDTH 556 0
DWIDTH 10 0
BBX 10 10 0 1
BITMAP
03B1000930
4EFB109FE2
6FFFB8FFF8
05FFFFFF90
005FFFF700
006FFFF700
05FFFEFF60
5FFE43EFF4
4FE3003EE4
0520000230
ENDCHAR
STARTCHAR Oslash
ENCODING 216
SWIDTH 808 0
DWIDTH 15 0
BBX 15 15 0 -2
BITMAP
0000000002C40000
0000000109FF6000
0004ADFFFFFE1000
01BFFFCAFFFE5000
0BFFE404FFFFF400
4FFF400CFEBFFC00
8FFC006FF74FFF10
9FFB01DFC03FFF30
8FFD07FF305FFF10
4FFF4EF8009FFC00
0BFFEFD104FFF300
01BFFFB8BFFE5000
000CFFFFFD810000
003FE23310000000
003C600000000000
ENDCHAR
STARTCHAR Ugrave
ENCODING 217
SWIDTH 725 0
DWIDTH 13 0
BBX 17 18 -2 -1
BITMAP
00000004B400000000
0000001FF900000000
00000008FE00000000
00000001EF30000000
000000004300000000
16654321029CCCB810
006DFFFB5005FF6000
0007FFC00000DF1000
0008FFB00000DF0000
0009FFB00000CE0000
0009FFB00000CE0000
0009FFA00000BD0000
0009FFB00000BC0000
0008FFC00000CB0000
0005FFF40004F70000
0000CFFE658FE10000
00001BFFFFFC300000
000000367630000000
ENDCHAR
STARTCHAR Uacute
ENCODING 218
SWIDTH 725 0
DWIDTH 13 0
BBX 17 19 -2 -1
BITMAP
000000004200000000
00000000BF80000000
00000002FF40000000
00000007FB00000000
000000028300000000
000000000000000000
16654321029CCCB810
006DFFFB5005FF6000
0007FFC00000DF1000
0008FFB00000DF0000
0009FFB00000CE0000
0009FFB00000CE0000
0009FFA00000BD0000
0009FFB00000BC0000
0008FFC00000CB0000
0005FFF40004F70000
0000CFFE658FE10000
00001BFFFFFC300000
000000367630000000
ENDCHAR
STARTCHAR Ucircumflex
ENCODING 219
SWIDTH 725 0
DWIDTH 13 0
BBX 17 19 -2 -1
BITMAP
000000006300000000
00000005FD10000000
0000002EFFB0000000
000001DE69F8000000
000001810046000000
000000000000000000
16654321029CCCB810
006DFFFB5005FF6000
0007FFC00000DF1000
0008FFB00000DF0000
0009FFB00000CE0000
0009FFB00000CE0000
0009FFA00000BD0000
0009FFB00000BC0000
0008FFC00000CB0000
0005FFF40004F70000
0000CFFE658FE10000
00001BFFFFFC300000
000000367630000000
ENDCHAR
STARTCHAR Udieresis
ENCODING 220
SWIDTH 725 0
DWIDTH 13 0
BBX 17 16 -2 -1
BITMAP
0000006F53E8000000
0000007F74FA000000
000000020020000000
16654321029CCCB810
006DFFFB5005FF6000
0007FFC00000DF1000
0008FFB00000DF0000
0009FFB00000CE0000
0009FFB00000CE0000
0009FFA00000BD0000
0009FFB00000BC0000
0008FFC00000CB0000
0005FFF40004F70000
0000CFFE658FE10000
00001BFFFFFC300000
000000367630000000
ENDCHAR
STARTCHAR Yacute
ENCODING 221
SWIDTH 848 0
DWIDTH 15 0
BBX 19 19 -2 -2
BITMAP
00000000002400000000
00000000009FB0000000
0000000000EF70000000
0000000004FD00000000
00000000017500000000
4667899A810000000000
16BFFFF8000687665510
0002AFFC10018FFE9200
00000BFFA0003E810000
000001DFF803E9000000
0000002EFF8EA0000000
00000003EFFB00000000
000000006FF300000000
000000006FF400000000
000000006FF500000000
000000007FF700000000
000000009FFA10000000
0000016DFFFFFB610000
00000344333333320000
ENDCHAR
STARTCHAR Thorn
ENCODING 222
SWIDTH 745 0
DWIDTH 13 0
BBX 16 13 -2 -1
BITMAP
1777766555400000
016DFFFFD7100000
00009FF810000000
00007FFFFFEC8300
00006FFC88ADFFB1
00006FF700004FF7
00006FF700002EF7
00006FF82359EFA1
00005FFFFFFD9300
00005FFD53100000
00007FFD10000000
004CFFFFE9200000
0588887777730000
ENDCHAR
STARTCHAR germandbls
ENCODING 223
SWIDTH 986 0
DWIDTH 18 0
BBX 19 25 -1 -8
BITMAP
00000027A96100000000
000005EFFFFE30000000
00003FF8007FE2000000
0000AFB0000AFA000000
0001FF600005FE000000
0003FF500004FF100000
0004FF500005FE000000
0005FF60000DFA000000
0BFFFF80007FF3000000
0689FFA002EF90000000
0000EFC007FF30000000
0000CFD009FF20000000
0000AFF008FFB2000000
00008FF202DFFFA40000
00006FF4002DFFFFD500
00005FF602506DFFFF70
00003FF703E2005CFFD0
00001FF904FE5001FFC0
00000FFA05FFFDBDFE30
38200EFA06727ABA7100
CFB00EF8030000000000
CF903FF4000000000000
5FD6CFB0000000000000
05EFFA10000000000000
00021000000000000000
ENDCHAR
STARTCHAR agrave
ENCODING 224
SWIDTH 572 0
DWIDTH 10 0
BBX 12 17 0 -1
BITMAP
000004B40000
00001FF90000
000008FE0000
000001EF3000
000000430000
000000000000
004BEEC70000
07FD77EFB000
1FF8006FF300
1EF8003FF600
0375545FF600
1AFFDDFFF500
8FF5007FF300
9FF5009FF200
2DFFDEFFF000
005787FFFC50
000000655431
ENDCHAR
STARTCHAR aacute
ENCODING 225
SWIDTH 572 0
DWIDTH 10 0
BBX 12 17 0 -1
BITMAP
000000500000
000004FE2000
000009FC0000
00000EF40000
000005800000
000000000000
004BEEC70000
07FD77EFB000
1FF8006FF300
1EF8003FF600
0375545FF600
1AFFDDFFF500
8FF5007FF300
9FF5009FF200
2DFFDEFFF000
005787FFFC50
000000655431
ENDCHAR
STARTCHAR acircumflex
ENCODING 226
SWIDTH 572 0
DWIDTH 10 0
BBX 12 17 0 -1
BITMAP
000005400000
00004FE20000
0002EFFC0000
000CE79F9000
001820037000
000000000000
004BEEC70000
07FD77EFB000
1FF8006FF300
1EF8003FF600
0375545FF600
1AFFDDFFF500
8FF5007FF300
9FF5009FF200
2DFFDEFFF000
005787FFFC50
000000655431
ENDCHAR
STARTCHAR atilde
ENCODING 227
SWIDTH 572 0
DWIDTH 10 0
BBX 12 16 0 -1
BITMAP
0004A9428000
000BFFFFB000
000A78EF8000
000100000000
000000000000
004BEEC70000
07FD77EFB000
1FF8006FF300
1EF8003FF600
0375545FF600
1AFFDDFFF500
8FF5007FF300
9FF5009FF200
2DFFDEFFF000
005787FFFC50
000000655431
ENDCHAR
STARTCHAR adieresis
ENCODING 228
SWIDTH 572 0
DWIDTH 10 0
BBX 12 15 0 -1
BITMAP
001DB0BD1000
001ED0DE2000
000110110000
000000000000
004BEEC70000
07FD77EFB000
1FF8006FF300
1EF8003FF600
0375545FF600
1AFFDDFFF500
8FF5007FF300
9FF5009FF200
2DFFDEFFF000
005787FFFC50
000000655431
ENDCHAR
STARTCHAR aring
ENCODING 229
SWIDTH 572 0
DWIDTH 10 0
BBX 12 15 0 -1
BITMAP
000005500000
00009EE80000
0000D67C0000
00008FF60000
004AEFE80000
07FD77EFB000
1FF8006FF300
1EF8003FF500
0375545FF600
1AFFDDFFF500
8FF5007FF300
9FF5009FF200
2DFFDEFFF000
005787FFFC50
000000655431
ENDCHAR
STARTCHAR ae
ENCODING 230
SWIDTH 1022 0
DWIDTH 18 0
BBX 19 11 0 -1
BITMAP
007CEEB4000145400000
1CFA69FF519FFFFE5000
6FF300BFDCFE75AFF500
6FF3008FFFF6000BFD00
0565549FFFFA999CFF20
3DFEDEFFFFFDCCCCBB20
DFE100DFFFF600000200
EFE100FFCBFF9658B200
6FFEDEFFA08EFFFA2000
025789FFF92022000000
00000265443000000000
ENDCHAR
STARTCHAR ccedilla
ENCODING 231
SWIDTH 589 0
DWIDTH 11 0
BBX 11 16 0 -7
BITMAP
0005ADDA4000
01BFFBCFF700
0AFF600CFF20
2FFC000BFF20
6FF900017400
6FF900000020
4FFD00000650
0DFFA1007E10
03EFFFDFF700
002AFFFD5000
00008E100000
0003FFC20000
000025E90000
0001A5E90000
0003EFE30000
000013100000
ENDCHAR
STARTCHAR egrave
ENCODING 232
SWIDTH 593 0
DWIDTH 11 0
BBX 11 16 0 -2
BITMAP
000005C10000
00004FF60000
00000BFB0000
000003FF1000
000000520000
000024410000
004CFFFE6000
05FFC8BFF700
1EFD000AFE10
5FF82225FF50
6FFFFFFFFF70
5FFA66655520
1EFD10001400
04FFEA9AD300
002BFFEA2000
000001000000
ENDCHAR
STARTCHAR eacute
ENCODING 233
SWIDTH 593 0
DWIDTH 11 0
BBX 11 16 0 -2
BITMAP
000002400000
000007FC0000
00000CF90000
00002FE10000
000016600000
000024410000
004CFFFE6000
05FFC8BFF700
1EFD000AFE10
5FF82225FF50
6FFFFFFFFF70
5FFA66655520
1EFD10001400
04FFEA9AD300
002BFFEA2000
000001000000
ENDCHAR
STARTCHAR ecircumflex
ENCODING 234
SWIDTH 593 0
DWIDTH 11 0
BBX 11 16 0 -2
BITMAP
000005400000
00004FE20000
0002EFFC0000
000CE79F9000
001820037000
000024410000
004CFFFE6000
05FFC8BFF700
1EFD000AFE10
5FF82225FF50
6FFFFFFFFF70
5FFA66655520
1EFD10001400
04FFEA9AD300
002BFFEA2000
000001000000
ENDCHAR
STARTCHAR edieresis
ENCODING 235
SWIDTH 593 0
DWIDTH 11 0
BBX 11 14 0 -2
BITMAP
0006E54E8000
0008F65F9000
000020020000
000024410000
004CFFFE6000
05FFC8BFF700
1EFD000AFE10
5FF82225FF50
6FFFFFFFFF70
5FFA66655520
1EFD10001400
04FFEA9AD300
002BFFEA2000
000001000000
ENDCHAR
STARTCHAR igrave
ENCODING 236
SWIDTH 393 0
DWIDTH 7 0
BBX 9 16 -1 0
BITMAP
0003A60000
000EFB0000
0006FF1000
0000DF5000
0000330000
0000000000
1555554000
03AFFFD000
0004FFB000
0002FFA000
0001FF9000
0001FF8000
0000FF7000
0000EF6000
0019FFB100
04CEEFFE50
ENDCHAR
STARTCHAR iacute
ENCODING 237
SWIDTH 393 0
DWIDTH 7 0
BBX 9 16 -1 0
BITMAP
0000051000
00001FE400
00006FE100
0000BF6000
0000490000
0000000000
1555554000
03AFFFD000
0004FFB000
0002FFA000
0001FF9000
0001FF8000
0000FF7000
0000EF6000
0019FFB100
04CEEFFE50
ENDCHAR
STARTCHAR icircumflex
ENCODING 238
SWIDTH 393 0
DWIDTH 7 0
BBX 9 16 -1 0
BITMAP
0000460000
0002EF4000
000CFFE200
009F97EC00
0073002810
0000000000
1555554000
03AFFFD000
0004FFB000
0002FFA000
0001FF9000
0001FF8000
0000FF7000
0000EF6000
0019FFB100
04CEEFFE50
ENDCHAR
STARTCHAR idieresis
ENCODING 239
SWIDTH 393 0
DWIDTH 7 0
BBX 9 13 -1 0
BITMAP
002EA0CD00
002FC0EE10
0002101100
1555554000
03AFFFD000
0004FFB000
0002FFA000
0001FF9000
0001FF8000
0000FF7000
0000EF6000
0019FFB100
04CEEFFE50
ENDCHAR
STARTCHAR eth
ENCODING 240
SWIDTH 672 0
DWIDTH 12 0
BBX 14 17 -1 -2
BITMAP
00142000000200
00008A2003CD10
000005E89FF900
0000009FFE4000
00002BFFFD1000
0001DFE6BFC100
00004C203FF800
000000000BFF20
0005ADEFEDFF80
01CFFC87BFFFD0
0AFF800007FFF1
1FFD000000EFF1
2FFB000000CFF0
0EFE100001EFB0
07FFA1001BFF30
007EFEBCEFE400
000168AA951000
ENDCHAR
STARTCHAR ntilde
ENCODING 241
SWIDTH 643 0
DWIDTH 12 0
BBX 15 13 -2 1
BITMAP
0000018A72640000
000003FFFFF40000
000003B6BFD30000
0000010000000000
001368B247620000
29EFFFFEFFFF5000
0014EFFB79FFD000
0000BFE0008FF100
00009FD0005FF200
00007FB0005FF000
00007FB0005FD000
005BDDDB307FC000
000000016CDDDB40
ENDCHAR
STARTCHAR ograve
ENCODING 242
SWIDTH 705 0
DWIDTH 13 0
BBX 13 15 0 -1
BITMAP
00000397000000
00000DFC000000
000005FF200000
000000CF600000
00000034000000
00026787510000
02BFFFDFFF8000
2EFF60008FFB00
9FF600000BFF40
CFF1000007FF70
BFF3000007FF60
6FFA00001DFE10
09FFB657EFE400
004AEFFFD82000
00000120000000
ENDCHAR
STARTCHAR oacute
ENCODING 243
SWIDTH 705 0
DWIDTH 13 0
BBX 13 16 0 -1
BITMAP
00000042000000
000000EF600000
000004FF200000
000009F9000000
00000391000000
00000000000000
00026787510000
02BFFFDFFF8000
2EFF60008FFB00
9FF600000BFF40
CFF1000007FF70
BFF3000007FF60
6FFA00001DFE10
09FFB657EFE400
004AEFFFD82000
00000120000000
ENDCHAR
STARTCHAR ocircumflex
ENCODING 244
SWIDTH 705 0
DWIDTH 13 0
BBX 13 16 0 -1
BITMAP
00000081000000
000008FB000000
00005FFF800000
0002ED6BF50000
00027100640000
00000000000000
00026787510000
02BFFFDFFF8000
2EFF60008FFB00
9FF600000BFF40
CFF1000007FF70
BFF3000007FF60
6FFA00001DFE10
09FFB657EFE400
004AEFFFD82000
00000120000000
ENDCHAR
STARTCHAR otilde
ENCODING 245
SWIDTH 705 0
DWIDTH 13 0
BBX 13 14 0 -1
BITMAP
00007A82460000
0000FFFFF70000
0000C6AFE50000
00001000000000
00026787510000
02BFFFDFFF8000
2EFF60008FFB00
9FF600000BFF40
CFF1000007FF70
BFF3000007FF60
6FFA00001DFE10
09FFB657EFE400
004AEFFFD82000
00000120000000
ENDCHAR
STARTCHAR odieresis
ENCODING 246
SWIDTH 705 0
DWIDTH 13 0
BBX 13 13 0 -1
BITMAP
0000BD18E40000
0000CF29F50000
00001200200000
00026787510000
02BFFFDFFF8000
2EFF60008FFB00
9FF600000BFF40
CFF1000007FF70
BFF3000007FF60
6FFA00001DFE10
09FFB657EFE400
004AEFFFD82000
00000120000000
ENDCHAR
STARTCHAR divide
ENCODING 247
SWIDTH 504 0
DWIDTH 9 0
BBX 9 12 0 -1
BITMAP
0000320000
000BFF5000
000FFF9000
0005BA2000
6665432210
CFFFFFFFD0
CFFFFFFFC0
3322110000
0008DA1000
002FFF6000
000CFE3000
0000200000
ENDCHAR
STARTCHAR oslash
ENCODING 248
SWIDTH 705 0
DWIDTH 13 0
BBX 13 14 0 -3
BITMAP
000000002A1000
00000000BFE100
00026799FF8000
02BFFFDFFF9100
2EFF607FFFFB00
9FF601EFABFF40
CFF109FE17FF70
BFF33FF607FF60
5FFACFC01DFE10
08FFFF87EFE400
004FFFFFD82000
007FD220000000
008F5000000000
00020000000000
ENDCHAR
STARTCHAR ugrave
ENCODING 249
SWIDTH 614 0
DWIDTH 11 0
BBX 15 16 -2 -1
BITMAP
0000006C10000000
000005FF50000000
000000CFA0000000
0000004FE0000000
0000000510000000
0000000000000000
2ADDDD1588897000
006EFE004CFFA000
000DFC0001FF8000
000DFB0002FF6000
000DFA0002FF3000
000DFA0003FF1000
000BFC0006FD0000
0005FFB79FFB0000
00007EFFEAFFC610
0000003314A85200
ENDCHAR
STARTCHAR uacute
ENCODING 250
SWIDTH 614 0
DWIDTH 11 0
BBX 15 16 -2 -1
BITMAP
0000000330000000
00000009FA000000
0000000EF6000000
0000005FD0000000
0000001740000000
0000000000000000
2ADDDD1588897000
006EFE004CFFA000
000DFC0001FF8000
000DFB0002FF6000
000DFA0002FF3000
000DFA0003FF1000
000BFC0006FD0000
0005FFB79FFB0000
00007EFFEAFFC610
0000003314A85200
ENDCHAR
STARTCHAR ucircumflex
ENCODING 251
SWIDTH 614 0
DWIDTH 11 0
BBX 15 16 -2 -1
BITMAP
0000000720000000
0000006FC1000000
000003FFFA000000
00002EE6AF700000
0000281005500000
0000000000000000
2ADDDD1588897000
006EFE004CFFA000
000DFC0001FF8000
000DFB0002FF6000
000DFA0002FF3000
000DFA0003FF1000
000BFC0006FD0000
0005FFB79FFB0000
00007EFFEAFFC610
0000003314A85200
ENDCHAR
STARTCHAR udieresis
ENCODING 252
SWIDTH 614 0
DWIDTH 11 0
BBX 15 14 -2 -1
BITMAP
00001DB0BD100000
00001ED0DE200000
0000011011000000
0000000000000000
2ADDDD1588897000
006EFE004CFFA000
000DFC0001FF8000
000DFB0002FF6000
000DFA0002FF3000
000DFA0003FF1000
000BFC0006FD0000
0005FFB79FFB0000
00007EFFEAFFC610
0000003314A85200
ENDCHAR
STARTCHAR yacute
ENCODING 253
SWIDTH 655 0
DWIDTH 12 0
BBX 13 24 -1 -9
BITMAP
00000033000000
0000009FA00000
000000EF600000
000005FD000000
00000174000000
64000000000000
1CE9406CA97610
01DFFC02BFFF30
00BFF8000DFF30
01FFF3000DFF20
04FFE0000DFF10
05FFD0000DFF10
02FFF9224EFF00
006FFFFFFFFF00
000279974FFE00
000000000FFD00
000000001FFD00
000000002FFC00
00BD30004FFA00
04FF70008FF600
02FF2001EFE100
007FD88DFE4000
0005CFFEA30000
00000010000000
ENDCHAR
STARTCHAR thorn
ENCODING 254
SWIDTH 734 0
DWIDTH 13 0
BBX 16 21 -2 -8
BITMAP
1666666300000000
029FFFF800000000
0002BFF800000000
00007FF800000000
00006FF800000000
00006FF800000000
00005FF800000000
00005FFCBCCA7100
00005FFFB9BFFE30
00004FF90003EFE1
00004FF900006FF4
00003FF900006FF5
00003FF90000AFF2
00002FFD634AFFA0
00002FFFFFFFE800
00002FF925651000
00001FF900000000
00001FFA00000000
00002FFC10000000
0029FFFFFA400000
0366554332100000
ENDCHAR
STARTCHAR ydieresis
ENCODING 255
SWIDTH 655 0
DWIDTH 12 0
BBX 13 22 -1 -9
BITMAP
0001DB0BD10000
0001ED0DE20000
00001101100000
64000000000000
1CE9406CA97610
01DFFC02BFFF30
00BFF8000DFF30
01FFF3000DFF20
04FFE0000DFF10
05FFD0000DFF10
02FFF9224EFF00
006FFFFFFFFF00
000279974FFE00
000000000FFD00
000000001FFD00
000000002FFC00
00BD30004FFA00
04FF70008FF600
02FF2001EFE100
007FD88DFE4000
0005CFFEA30000
00000010000000
ENDCHAR
STARTCHAR dotlessi
ENCODING 305
SWIDTH 393 0
DWIDTH 7 0
BBX 9 10 -1 0
BITMAP
1555554000
03AFFFD000
0004FFB000
0002FFA000
0001FF9000
0001FF8000
0000FF7000
0000EF6000
0019FFB100
04CEEFFE50
ENDCHAR
STARTCHAR Lslash
ENCODING 321
SWIDTH 713 0
DWIDTH 13 0
BBX 15 15 -2 0
BITMAP
1222222222220000
05AFFFFFFE820000
00018FFF71000000
00003FFF30000000
00003FFF22000000
00002FFFBF500000
00001FFFFFC00000
0004CFFFE8200040
00AFFFFF20000090
006FAEFF100005A0
00020DFF10000BA0
00000CFF00002FA0
00000CFF32218FA0
0004CFFFFFFFFFA0
039CBAA988766530
ENDCHAR
STARTCHAR lslash
ENCODING 322
SWIDTH 365 0
DWIDTH 7 0
BBX 10 18 -2 -2
BITMAP
4666667100
04AFFFF200
0002FFF100
0001FFF000
0000FFF000
0000FFE051
0000EFFEF6
0004EFFFC4
06DFFFE500
08FFFFC000
02C5BFC000
0000BFB000
0000AFB000
00009FA000
00009FA000
0001BFC200
004DFFFE70
0155433220
ENDCHAR
STARTCHAR OE
ENCODING 338
SWIDTH 1195 0
DWIDTH 22 0
BBX 21 14 0 -1
BITMAP
0000000012456789ACDEC0
00000039DFFFFFFEDBCFB0
0000012003AFFF10001FB0
005BEFFFB46FFF001209A0
09FFC65BFFBFFF00830390
5FFA0000BFFFFE01E20050
BFF200004FFFFE49F20000
CFF000002FFFFFFFF20030
BFF100004FFFFE8CF10450
5FF70000AFFFFD02F10950
0AFF835AFF9FFC00710D50
006DFFFFB44FFC22224F50
000024315BFFFFFFFFFF50
0000001566666655555520
ENDCHAR
STARTCHAR oe
ENCODING 339
SWIDTH 1087 0
DWIDTH 20 0
BBX 20 11 0 -2
BITMAP
00001220000000000000
018DFFFFA304ADDC7100
1DFE845BFEBFFEDFFD20
8FF40000DFFF9003FFB0
CFC000008FFE10009FF3
CFD000008FFFEEEEEFF5
7FF30000CFFF99888873
0CFE635CFFFF50000140
007DFFFE93DFFB88AD20
000012200018DFFE9100
00000000000001100000
ENDCHAR
STARTCHAR Scaron
ENCODING 352
SWIDTH 661 0
DWIDTH 12 0
BBX 12 20 0 -2
BITMAP
000730028100
000AF97EC000
0001CFFE2000
00002EF40000
000004600000
000000000002
0038ABA72066
0AFFDBCFFBF5
7FF60003AFF3
CFF5000007F1
BFFFB7300080
4EFFFFFE8200
03BFFFFFFF70
01026AEFFFF5
08000007FFFA
0C900000AFF9
0DFB4115EFE3
0E7EFFFFFC30
180147762000
210000000000
ENDCHAR
STARTCHAR scaron
ENCODING 353
SWIDTH 533 0
DWIDTH 10 0
BBX 10 18 0 -1
BITMAP
0064001810
009FA6ED10
000BFFE300
0001DF5000
0000360000
0000000000
0027861050
08FFFFE7C0
6FE203BFE0
9FE30009E0
6FFFB61090
0AFFFFE820
115CFFFFC1
3A0038EFF7
5FA1003FF8
6FFEA8CFE2
855ADED920
2000000000
ENDCHAR
STARTCHAR Ydieresis
ENCODING 376
SWIDTH 848 0
DWIDTH 15 0
BBX 19 17 -2 -2
BITMAP
00000005E72E90000000
00000006F83FB0000000
00000000200210000000
4667899A810000000000
16BFFFF8000687665510
0002AFFC10018FFE9200
00000BFFA0003E810000
000001DFF803E9000000
0000002EFF8EA0000000
00000003EFFB00000000
000000006FF300000000
000000006FF400000000
000000006FF500000000
000000007FF700000000
000000009FFA10000000
0000016DFFFFFB610000
00000344333333320000
ENDCHAR
STARTCHAR Zcaron
ENCODING 381
SWIDTH 685 0
DWIDTH 12 0
BBX 13 17 0 0
BITMAP
00027100640000
0003ED6BF50000
00005FFF800000
000008FB000000
00000081000000
00000000000000
7BBCCCDDEEEF80
6FFDDCCDFFFB00
2F80001DFFD100
0D5000BFFF3000
092009FFF60000
04007FFF900510
0005FFFC100D10
003FFFE2006F00
02EFFF4001DE00
1CFFFFEEDDFD00
59AAAAAAABB900
ENDCHAR
STARTCHAR zcaron
ENCODING 382
SWIDTH 549 0
DWIDTH 10 0
BBX 11 17 0 -1
BITMAP
004600172000
006FB6DE2000
0009FFF50000
0000CF800000
000018000000
000000000000
233444555630
9FFFFFFFFD10
6F9546FFF300
4F301DFF7000
1D00AFFB0000
0607FFD11400
004FFF407600
02EFF800D700
1CFFF988F800
6CDEFFFFF800
000001234300
ENDCHAR
STARTCHAR circumflex
ENCODING 710
SWIDTH 714 0
DWIDTH 13 0
BBX 7 5 4 12
BITMAP
00360000
01DF5000
0CFFE200
9F97EC10
74002810
ENDCHAR
STARTCHAR caron
ENCODING 711
SWIDTH 714 0
DWIDTH 13 0
BBX 7 5 4 12
BITMAP
64002810
9F97ED10
0CFFE200
02EF5000
00360000
ENDCHAR
STARTCHAR breve
ENCODING 728
SWIDTH 715 0
DWIDTH 13 0
BBX 6 4 4 13
BITMAP
650029
7FA8EB
0CFFE2
019A20
ENDCHAR
STARTCHAR dotaccent
ENCODING 729
SWIDTH 708 0
DWIDTH 13 0
BBX 3 3 5 14
BITMAP
7E40
9F50
0200
ENDCHAR
STARTCHAR ring
ENCODING 730
SWIDTH 704 0
DWIDTH 13 0
BBX 4 4 5 13
BITMAP
1992
ACCB
C87D
4EF5
ENDCHAR
STARTCHAR ogonek
ENCODING 731
SWIDTH 988 0
DWIDTH 18 0
BBX 7 6 5 -3
BITMAP
03300000
1EA00000
4FB00000
3FFB8AB0
09FFFC40
00121000
ENDCHAR
STARTCHAR tilde
ENCODING 732
SWIDTH 707 0
DWIDTH 13 0
BBX 6 4 4 12
BITMAP
4A9428
AFFFFC
978EF9
100000
ENDCHAR
STARTCHAR hungarumlaut
ENCODING 733
SWIDTH 671 0
DWIDTH 12 0
BBX 7 5 3 13
BITMAP
03303300
09FBBF90
0EF8FF50
4FD6FC00
17528400
ENDCHAR
STARTCHAR endash
ENCODING 8211
SWIDTH 576 0
DWIDTH 10 0
BBX 9 4 1 5
BITMAP
0000000100
CEEEFFFF30
EFFFFFFF40
6778899930
ENDCHAR
STARTCHAR emdash
ENCODING 8212
SWIDTH 993 0
DWIDTH 18 0
BBX 16 3 1 5
BITMAP
ABBBBCCCCCCDDDDA
EFFFFFFFFFFFFFFB
99AAAAABBBBBCCCA
ENDCHAR
STARTCHAR quoteleft
ENCODING 8216
SWIDTH 261 0
DWIDTH 5 0
BBX 5 6 0 7
BITMAP
00C820
06FF50
1DFE10
7FFA00
4BF500
003000
ENDCHAR
STARTCHAR quoteright
ENCODING 8217
SWIDTH 301 0
DWIDTH 5 0
BBX 5 6 0 7
BITMAP
02D610
07FFA0
0CFF30
2FFA00
3DF200
003000
ENDCHAR
STARTCHAR quotesinglbase
ENCODING 8218
SWIDTH 332 0
DWIDTH 6 0
BBX 5 6 0 -2
BITMAP
02D610
07FFA0
0CFF30
2FFA00
3DF200
003000
ENDCHAR
STARTCHAR quotedblleft
ENCODING 8220
SWIDTH 477 0
DWIDTH 9 0
BBX 9 6 0 7
BITMAP
00C821C810
06FF58FF30
1DFE2EFD00
7FFA9FF800
4BF55CF300
0030003000
ENDCHAR
STARTCHAR quotedblright
ENCODING 8221
SWIDTH 477 0
DWIDTH 9 0
BBX 9 6 0 7
BITMAP
07A409A300
0CFF5EFF30
2FFC4FFB00
7FF49FF300
8FB09F9000
0120021000
ENDCHAR
STARTCHAR quotedblbase
ENCODING 8222
SWIDTH 477 0
DWIDTH 9 0
BBX 9 6 0 -2
BITMAP
07A409A300
0CFF5EFF30
2FFC4FFB00
7FF49FF300
8FB09F9000
0120021000
ENDCHAR
STARTCHAR dagger
ENCODING 8224
SWIDTH 487 0
DWIDTH 9 0
BBX 9 22 0 -6
BITMAP
0000010000
000DFF0000
000DFF0000
000DFF0000
000DFF0000
6BAEFF7620
9FFFFFFF50
9FFFFFDD30
110CFD0000
000BFD0000
000BFD0000
000BFC0000
000AFC0000
000AFC0000
000AFB0000
000AFB0000
0009FB0000
0009FA0000
0009FA0000
0008FA0000
0008F90000
0002430000
ENDCHAR
STARTCHAR daggerdbl
ENCODING 8225
SWIDTH 497 0
DWIDTH 9 0
BBX 9 22 0 -6
BITMAP
0000010000
000DFF0000
000DFF0000
000DFF0000
000DFF0000
6BAEFF7620
9FFFFFFF50
9FFFFFDD30
110CFD0000
001CFE5620
9FFFFFFF50
8FFFFFFF50
244CFD6730
000AFC0000
000AFB0000
000AFB0000
0009FB0000
0009FA0000
0009FA0000
0008FA0000
0008F90000
0002430000
ENDCHAR
STARTCHAR bullet
ENCODING 8226
SWIDTH 275 0
DWIDTH 5 0
BBX 5 6 0 4
BITMAP
024100
5FFE40
DFFFC0
EFFFD0
8FFF70
058500
ENDCHAR
STARTCHAR ellipsis
ENCODING 8230
SWIDTH 787 0
DWIDTH 14 0
BBX 14 4 0 -2
BITMAP
06610056100561
9FFA09FFB08FFB
AFFC0AFFC09FFD
17720178201782
ENDCHAR
STARTCHAR perthousand
ENCODING 8240
SWIDTH 888 0
DWIDTH 16 0
BBX 17 15 0 -1
BITMAP
00210006D810000000
4EFF800CFD00000000
DF5BF33FF600000000
EE08F59FE100000000
9FCED2EF8000000000
06A826FF2000000000
00000CFA0000000000
00003FF30000000000
00009FC00000000000
0001EF528A7159A500
0006FD1EFCFDFDDF50
000CF75F80EFF43FA0
003FE13FC5FFF88F80
009F9008FFD5CFFB10
005A20001200021000
ENDCHAR
STARTCHAR guilsinglleft
ENCODING 8249
SWIDTH 234 0
DWIDTH 4 0
BBX 4 10 0 -1
BITMAP
0018
00AE
06F8
2EF2
BFA0
8FD0
0CF4
02EB
005D
0002
ENDCHAR
STARTCHAR guilsinglright
ENCODING 8250
SWIDTH 223 0
DWIDTH 4 0
BBX 4 10 0 -1
BITMAP
6300
BD10
5F90
0DF5
07FE
0AFB
2FE1
8F40
A800
2000
ENDCHAR
STARTCHAR fraction
ENCODING 8260
SWIDTH 600 0
DWIDTH 11 0
BBX 13 18 -1 -3
BITMAP
000000000A8100
000000003FFD20
00000000CFFC00
00000006FFF300
0000001EFF9000
0000008FFE1000
000002FFF60000
00000BFFB00000
00004FFF200000
0000DFF8000000
0007FFD0000000
001EFF40000000
009FFA00000000
03FFE100000000
0BFF6000000000
5FFC0000000000
07E30000000000
00100000000000
ENDCHAR
STARTCHAR Euro
ENCODING 8364
SWIDTH 590 0
DWIDTH 11 0
BBX 12 12 -1 0
BITMAP
000004ACA500
0001BFEBEFA0
000AFD102FF6
004FF5002FF8
6DEFFBA90581
7DEFFCBB2000
25CFF6674001
6DEFFFFFC008
002FFD3111B7
0007FFFBBEC1
00005DFFF910
000000131000
ENDCHAR
STARTCHAR trademark
ENCODING 8482
SWIDTH 624 0
DWIDTH 11 0
BBX 12 9 0 5
BITMAP
012000000000
066000000000
6E7100000000
8FA800000000
3F24AC996A40
4F005E3CA7B0
5E023B0953B0
4F976A3B67A2
056000232000
ENDCHAR
STARTCHAR minus
ENCODING 8722
SWIDTH 549 0
DWIDTH 10 0
BBX 10 4 0 4
BITMAP
9CBA998764
CFFFFFFFFA
CFFFFFFFF9
4544332210
ENDCHAR
STARTCHAR fi
ENCODING 64257
SWIDTH 757 0
DWIDTH 14 0
BBX 16 26 -1 -8
BITMAP
0000000342000000
000005EFFFD50000
00005FF64BFF6000
0000DF8000CFE100
0004FF4001DFF400
0006FF3003FFF500
0007FF3001CFD100
0006FF4000020000
0005FF6111222100
0BFFFFFFFFFFF600
0689FFD888DFF500
0000FFC000AFF400
0000DFD0009FF200
0000BFF0008FF100
0000AFF2006FF000
00008FF4005FE000
00006FF503CFF500
00004FF77EEEFFA1
00002FF900000000
00000FFA00000000
27200EFA00000000
CFB00EF800000000
CF902FF400000000
5FD5CFC000000000
06EFFB1000000000
0002100000000000
ENDCHAR
STARTCHAR fl
ENCODING 64258
SWIDTH 776 0
DWIDTH 14 0
BBX 16 26 -1 -8
BITMAP
0000000454000000
000005EFFFE60000
00005FE53AFF6000
0000DF7001EFE000
0004FF4000AFF400
0006FF30008FF700
0007FF30007FF800
0006FF40006FF800
0005FF60006FF700
0BFFFFFFF75FF700
0689FFD8845FF700
0000FFC0004FF600
0000DFD0003FF600
0000CFF0003FF500
0000AFF2002FF400
00008FF4001FF300
00006FF5001FF300
00004FF7004FF700
00002FF919FFFFC3
00000FFA35443321
27200EFA00000000
CFB00EF800000000
CF902FF400000000
5FD5CFC000000000
06EFFB1000000000
0002100000000000
ENDCHAR
STARTCHAR .notdef
ENCODING -1
SWIDTH 320 0
DWIDTH 6 0
BBX 1 1 0 0
BITMAP
00
ENDCHAR
ENDFONT
